SplineFontDB: 1.0
FontName: MnSymbolS6
FullName: MnSymbolS6
FamilyName: MnSymbolS6
Weight: Regular
Copyright: Generated from MetaFont bitmap by mftrace 1.1.17, http://www.xs4all.nl/~hanwen/mftrace/ 
Version: 001.001
ItalicAngle: 0
UnderlinePosition: -100
UnderlineWidth: 50
Ascent: 800
Descent: 200
NeedsXUIDChange: 1
UniqueID: 4052782
OS2TypoAscent: 0
OS2TypoAOffset: 1
OS2TypoDescent: 0
OS2TypoDOffset: 1
OS2TypoLinegap: 0
OS2WinAscent: 0
OS2WinAOffset: 1
OS2WinDescent: 0
OS2WinDOffset: 1
HheadAscent: 0
HheadAOffset: 1
HheadDescent: 0
HheadDOffset: 1
OS2Vendor: 'PfEd'
Encoding: Custom
UnicodeInterp: none
NameList: Adobe Glyph List
DisplaySize: -24
AntiAlias: 1
FitToEm: 1
WinInfo: 54 18 9
BeginPrivate: 3
lenIV 1 4
BlueValues 2 []
ForceBold 5 false
EndPrivate
BeginChars: 256 28
StartChar: A
Encoding: 65 65 2
Width: 984
Flags: HMW
Back
145.626 68.1025 m 0
 152.476 63.248 160.147 59.2441 168.457 56.2197 c 0
 177.355 52.9814 186.983 50.8643 197.103 49.9668 c 0
 248.522 45.4102 330.911 157.985 384.602 229.926 c 0
 487.58 367.909 576.772 511.705 651.059 658.632 c 1
 704.807 658.632 l 1
 703.193 655.182 l 2
 618.839 482.094 516.913 315.678 399.816 158.779 c 0
 322.441 55.1035 234.363 -59.0557 165.397 -52.9443 c 0
 153.46 -51.8867 142.079 -49.3955 131.428 -45.5186 c 0
 121.48 -41.8975 112.168 -37.0703 103.639 -31.0244 c 0
 77.1504 -12.249 64.7461 10.6064 60.3057 28.3936 c 0
 55.583 47.3135 64.0771 79.8887 79.2656 101.106 c 0
 94.4541 122.324 110.614 124.189 115.337 105.27 c 0
 116.744 99.6318 124.384 83.1582 145.626 68.1025 c 0
811.144 217.714 m 0
 819.487 162.812 833.305 110.046 852.4 60.083 c 0
 853.251 57.8584 854.052 56.2734 854.936 54.7422 c 0
 862.476 41.6816 878.902 35.6641 888.636 37.9629 c 0
 888.654 37.9668 887.839 37.75 886.233 36.9395 c 1
 902.862 45.3291 l 2
 929.453 58.7451 953.556 58.9941 956.663 45.8848 c 0
 959.77 32.7754 940.711 11.2471 914.12 -2.16895 c 2
 897.491 -10.5576 l 2
 884.943 -16.8887 870.282 -22.8018 854.49 -26.5303 c 0
 829.824 -32.3535 781.894 -36.0381 760.846 0.418945 c 0
 759.472 2.79883 758.225 5.26074 756.903 8.71777 c 0
 737.252 60.1377 723.029 114.438 714.435 170.99 c 0
 689.619 334.272 675.101 501.186 670.958 670.922 c 0
 670.605 685.344 692.046 706.782 718.815 718.777 c 0
 745.585 730.771 767.597 728.802 767.948 714.38 c 0
 772.064 545.785 786.485 379.956 811.144 217.714 c 0
410.227 160.352 m 2
 389.408 160.352 386.193 175.584 403.05 194.352 c 0
 419.906 213.12 450.483 228.352 471.302 228.352 c 2
 793.326 228.352 l 2
 814.145 228.352 817.359 213.12 800.503 194.352 c 0
 783.646 175.584 753.069 160.352 732.252 160.352 c 2
 410.227 160.352 l 2
EndSplineSet
Fore
706 228 m 1
 690 349 679 471 674 595 c 1
 622 494 543 360 447 223 c 1
 455 226 464 228 471 228 c 2
 706 228 l 1
59 40 m 0
 59 77 85 118 103 118 c 0
 109 118 113 114 115 105 c 0
 122 80 164 50 200 50 c 0
 252 50 332 159 385 230 c 0
 488 368 577 512 651 659 c 1
 671 659 l 1
 671 671 l 2
 671 693 718 727 750 727 c 0
 761 727 768 722 768 714 c 0
 777 348 826 102 855 55 c 0
 861 44 874 37 884 37 c 0
 886 37 887 37 888 38 c 2
 903 45 l 2
 916 52 929 56 939 56 c 0
 948 56 957 52 957 43 c 0
 957 30 939 10 914 -2 c 2
 897 -11 l 2
 878 -20 848 -30 821 -30 c 0
 793 -30 768 -20 757 9 c 0
 738 57 725 108 716 160 c 1
 410 160 l 2
 407 160 404 161 402 161 c 1
 327 61 239 -53 171 -53 c 0
 114 -53 59 -4 59 40 c 0
EndSplineSet
EndChar
StartChar: B
Encoding: 66 66 3
Width: 810
Flags: HMW
Back
145.226 193.084 m 0
 180.657 334.814 206.817 476.447 223.525 617.058 c 1
 200.487 605.435 l 2
 173.896 592.019 149.793 591.771 146.687 604.88 c 0
 143.579 617.989 162.639 639.517 189.229 652.933 c 2
 270.075 693.722 l 2
 285.078 701.291 298.084 704.671 309.052 703.851 c 0
 320.02 703.031 325.045 698.303 324.11 689.682 c 0
 307.522 536.59 279.794 382.115 241.108 227.371 c 0
 223.129 155.453 193.69 86.3945 156.027 22.3418 c 0
 145.405 4.27637 116.84 -14.4834 92.2656 -19.5342 c 0
 67.6914 -24.585 56.3672 -14.0234 66.9893 4.04102 c 0
 102.363 64.1992 129.011 128.227 145.226 193.084 c 0
416.712 47.1719 m 0
 500.573 47.1729 560.483 67.2441 589.614 84.0625 c 0
 604.489 92.6514 633.864 113.034 645.404 159.194 c 0
 655.418 199.25 650.488 234.563 633.825 263.427 c 0
 594.01 332.39 491.021 360.098 387.178 342.561 c 0
 364.439 338.721 354.741 347.316 362.952 364.035 c 0
 371.162 380.753 393.289 397.467 418.227 405.786 c 0
 514.397 437.871 583.614 462.754 630.643 489.906 c 0
 641.177 495.988 646.895 500.029 650.604 502.759 c 0
 662.483 511.5 669.188 519.416 672.914 527.564 c 0
 673.63 529.13 674.208 529.691 675.57 535.139 c 0
 681.051 557.062 678.32 577.14 668.858 593.529 c 0
 647.894 629.842 597.424 643.575 552.398 636.641 c 0
 520.038 631.656 496.349 622.22 474.166 609.413 c 0
 385.796 558.392 289.582 421.267 241.108 227.371 c 0
 237.06 211.176 212.296 190.352 185.832 180.889 c 0
 159.368 171.425 141.177 176.889 145.226 193.084 c 0
 180.406 333.809 266.192 543.791 450.588 650.252 c 0
 503.885 681.022 554.091 696.602 597.611 703.305 c 0
 678.93 715.829 739.056 689.235 762.948 647.852 c 0
 775.117 626.774 779.226 600.516 771.453 569.426 c 0
 770.312 564.858 768.678 559.585 765.516 552.67 c 0
 762.517 546.11 749.763 515.654 696.804 476.685 c 0
 683.139 466.63 668.786 457.478 654.22 449.067 c 0
 630.126 435.156 603.001 422.103 575.336 410.137 c 1
 646.266 397.618 700.818 364.684 727.915 317.749 c 0
 747.29 284.19 753.554 242.549 741.287 193.481 c 0
 725.966 132.194 677.646 80.4365 613.191 43.2236 c 0
 524.849 -7.78125 426.835 -20.7891 355.673 -20.7891 c 0
 309.495 -20.7891 237.521 -11.2666 177.822 38.2627 c 0
 167.276 47.0127 178.688 67.5791 203.296 84.1709 c 0
 227.903 100.763 256.434 107.128 266.979 98.3779 c 0
 317.766 56.2422 377.567 47.1719 416.712 47.1719 c 0
EndSplineSet
Fore
775.349 599.678 m 0
 775.349 561.77 760.999 490.455 575.306 410.137 c 1
 659.979 395.192 747.637 342.279 747.637 242.234 c 0
 747.637 227.075 745.625 210.835 741.287 193.481 c 0
 712.048 76.5228 553.135 -20.7891 355.673 -20.7891 c 0
 309.495 -20.7891 237.521 -11.2666 177.822 38.2627 c 0
 175.155 40.4756 173.892 43.4442 173.892 46.9131 c 0
 173.892 69.0696 221.336 102.304 252.966 102.304 c 0
 258.891 102.304 263.769 101.041 266.979 98.3779 c 0
 317.767 56.243 377.567 47.1719 416.712 47.1719 c 0
 500.573 47.1729 560.483 67.2441 589.614 84.0625 c 0
 632.081 108.583 650.51 153.854 650.51 196.837 c 0
 650.51 305.041 543.636 347.688 447.513 347.688 c 0
 410.626 347.688 386.471 341.655 377.353 341.655 c 0
 366.187 341.655 360.067 345.947 360.067 353.579 c 0
 360.067 373.394 391.744 396.95 418.227 405.786 c 0
 647.825 482.391 678.382 507.905 678.382 557.001 c 0
 678.382 607.538 630.377 638.405 575.306 638.405 c 0
 419.658 638.405 293.097 435.328 241.108 227.371 c 0
 223.129 155.453 193.689 86.395 156.027 22.3418 c 0
 140.243 -4.50293 103.983 -19.9899 81.661 -19.9899 c 0
 70.5791 -19.9899 62.9327 -16.1728 62.9327 -8.03328 c 0
 62.9327 6.6504 113.555 66.406 145.226 193.084 c 0
 180.657 334.814 206.817 476.447 223.525 617.058 c 1
 200.487 605.435 l 2
 186.99 598.626 174.135 595.209 164.34 595.209 c 0
 154.957 595.209 146.355 598.611 146.355 607.827 c 0
 146.355 621.038 164.548 640.48 189.229 652.933 c 2
 270.075 693.722 l 2
 284.402 700.95 296.982 704.262 306.401 704.262 c 0
 317.5 704.262 324.208 699.662 324.208 691.448 c 0
 324.208 674.475 306.773 554.343 301.29 520.247 c 1
 435.645 686.244 587.668 706.418 637.017 706.418 c 0
 718.231 706.418 775.349 664.302 775.349 599.678 c 0
EndSplineSet
EndChar
StartChar: C
Encoding: 67 67 4
Width: 676
Flags: HMW
Back
530.863 553.583 m 0
 542.269 580.885 537.639 602.456 531.158 613.68 c 0
 525.051 624.26 516.807 628.43 511.065 630.343 c 0
 499.504 634.195 487.332 635.991 475.744 635.991 c 0
 396.752 635.991 345.5 613.149 318.607 597.622 c 0
 257.508 562.347 189.089 486.272 157.201 358.726 c 0
 140.939 293.677 138.482 209.788 178.356 140.723 c 0
 223.578 62.3945 297.054 49.8447 317.177 46.8096 c 0
 359.432 40.4355 410.242 47.1562 456.875 74.0801 c 0
 468.529 80.8076 497.756 98.9316 527.084 134.431 c 0
 542.549 153.148 572.836 169.326 594.689 170.54 c 0
 616.543 171.755 621.729 157.549 606.264 138.831 c 0
 573.21 98.8232 529.979 61.835 480.453 33.2412 c 0
 398.387 -14.1396 313.791 -30.6816 245.8 -20.4268 c 0
 168.948 -8.83496 116.178 31.127 84.2666 86.4004 c 0
 47.5293 150.032 38.8193 234.445 61.3184 324.438 c 0
 108.597 513.553 232.777 602.521 295.029 638.461 c 0
 373.62 683.836 456.75 703.953 536.782 703.953 c 0
 556.767 703.953 574.536 700.998 590.402 695.711 c 0
 607.215 690.109 618.208 680.198 625.249 668.003 c 0
 634.645 651.729 640.858 620.233 624.298 580.592 c 0
 610.874 548.46 594.028 516.652 573.745 485.562 c 0
 561.798 467.249 532.656 449.094 508.699 445.036 c 0
 484.741 440.979 474.993 452.549 486.941 470.862 c 0
 504.098 497.16 518.904 524.958 530.863 553.583 c 0
EndSplineSet
Fore
481.838 456.854 m 0
 481.838 470.385 537.343 537.574 537.343 590.528 c 0
 537.343 626.898 506.439 635.991 475.744 635.991 c 0
 212.056 635.991 146.134 373.956 146.134 271.43 c 0
 146.134 138.72 226.621 44.6144 347.352 44.6144 c 0
 394.344 44.6144 465.557 59.9666 527.084 134.431 c 0
 541.075 151.364 572.57 170.612 597.228 170.612 c 0
 608.943 170.612 615.171 165.727 615.171 157.986 c 0
 615.171 152.712 612.28 146.113 606.264 138.831 c 0
 526.082 41.7816 397.68 -23.4616 283.434 -23.4616 c 0
 143.265 -23.4616 49.8194 74.8313 49.8193 229.571 c 0
 49.8193 461.976 254.133 703.953 536.782 703.953 c 0
 621.395 703.953 634.634 660.534 634.634 631.588 c 0
 634.634 602.969 621.342 558.52 573.745 485.562 c 0
 559.367 463.524 522.085 444.225 499.792 444.225 c 0
 488.297 444.225 481.838 448.998 481.838 456.854 c 0
EndSplineSet
EndChar
StartChar: D
Encoding: 68 68 5
Width: 957
Flags: HMW
Back
300.981 324.438 m 0
 326.479 426.431 341.229 528.307 344.925 628.306 c 0
 345.472 643.122 367.64 664.482 394.406 675.985 c 0
 421.172 687.488 442.451 684.8 441.903 669.983 c 0
 438.126 567.773 423.053 463.479 396.864 358.726 c 0
 370.676 253.972 333.521 149.341 285.867 46.4277 c 0
 277.781 28.9658 250.506 9.23438 224.984 2.38574 c 0
 199.463 -4.46387 185.312 4.14941 193.398 21.6113 c 0
 239.376 120.905 275.483 222.447 300.981 324.438 c 0
350.523 68 m 2
 475.396 68 591.344 99.1152 670.561 144.851 c 0
 746.857 188.901 797.948 251.783 817.649 330.586 c 0
 834.713 398.843 828.477 452.548 804.365 494.312 c 0
 755.236 579.407 630.749 615.163 472.398 615.163 c 2
 362.894 615.163 l 2
 342.088 615.164 338.874 630.387 355.721 649.145 c 0
 372.568 667.902 403.127 683.125 423.934 683.125 c 2
 533.438 683.125 l 2
 704.025 683.125 842.973 644.735 898.455 548.635 c 0
 925.621 501.582 932.502 440.75 913.533 364.873 c 0
 887.078 259.055 807.62 169.531 694.138 104.012 c 0
 565.025 29.4688 415.818 0.0390625 289.483 0.0380859 c 2
 160.558 0.0390625 l 2
 139.751 0.0390625 136.538 15.2617 153.385 34.0195 c 0
 170.231 52.7773 200.791 68 221.598 68 c 2
 350.523 68 l 2
186.156 583.055 m 0
 171.359 574.512 165.629 565.787 162.783 561.777 c 0
 152.65 547.502 148.748 532.64 147.447 527.435 c 0
 143.398 511.239 118.635 490.415 92.1709 480.952 c 0
 65.707 471.489 47.5146 476.953 51.5645 493.148 c 0
 58.1025 519.303 69.8203 538.535 78.2432 550.401 c 0
 97.751 577.884 124.549 601.938 162.579 623.894 c 0
 174.365 630.698 170.232 628.193 172.161 629.228 c 0
 217.437 653.519 295.217 683.125 423.934 683.125 c 0
 444.74 683.125 447.954 667.902 431.106 649.145 c 0
 414.26 630.387 383.7 615.163 362.895 615.163 c 0
 281.078 615.164 219.801 601.16 188.937 584.602 c 0
 187.818 584.001 189.678 585.088 186.156 583.055 c 0
EndSplineSet
Fore
289.483 0.0380859 m 2
 160.558 0.0380859 l 2
 148.726 0.0380859 142.584 4.96071 142.584 12.6567 c 0
 142.584 34.5453 185.439 63.0881 213.83 67.3782 c 1
 299.818 267.407 336.845 454.033 344.365 614.934 c 1
 203.806 611.372 160.316 578.909 147.447 527.435 c 0
 142.364 507.103 100.688 476.309 69.0292 476.309 c 0
 57.8893 476.309 51.0006 480.763 51.0006 488.878 c 0
 51.0006 512.803 83.9131 578.477 162.579 623.894 c 2
 172.161 629.228 l 2
 259.888 676.294 362.46 683.312 425.59 683.312 c 0
 426.839 683.312 428.037 683.25 429.176 683.125 c 2
 533.438 683.125 l 2
 789.233 683.125 924.216 599.21 924.216 445.176 c 0
 924.216 420.228 920.675 393.441 913.533 364.873 c 0
 860.079 151.061 581.777 0.0380859 289.483 0.0380859 c 2
827.269 398.171 m 0
 827.269 571.765 648.591 615.163 472.398 615.163 c 2
 438.807 615.163 l 1
 426.036 446.68 382.159 261.067 295.692 68 c 1
 350.523 68 l 2
 475.396 68 591.344 99.1152 670.561 144.851 c 0
 784.314 210.527 827.269 313.803 827.269 398.171 c 0
EndSplineSet
EndChar
StartChar: E
Encoding: 69 69 6
Width: 668
Flags: HMW
Back
557.228 564.889 m 2
 563.472 574.531 567.65 591.645 558.371 607.715 c 0
 555.676 612.385 548.545 621.788 535.399 625.582 c 0
 511.186 632.569 485.635 635.991 459.966 635.991 c 0
 397.823 635.991 352.199 619.534 330.212 606.84 c 0
 321.772 601.967 315.28 597.09 308.887 590.749 c 0
 298.55 580.496 286.629 563.643 280.719 540.001 c 0
 274.503 515.138 277.368 494.255 287.458 476.778 c 0
 314.123 430.592 390.688 409.723 476.053 409.723 c 0
 496.859 409.723 500.072 394.499 483.226 375.742 c 0
 466.379 356.984 435.819 341.761 415.013 341.761 c 0
 323.256 341.762 227.278 363.719 193.367 422.455 c 0
 180.58 444.604 176.457 472.202 184.836 505.714 c 0
 190.71 529.213 204.234 562.088 239.897 597.46 c 0
 255.522 612.957 277.915 631.098 306.634 647.679 c 0
 343.663 669.058 419 703.953 521.005 703.953 c 0
 554.04 703.953 584.808 699.622 613.131 691.448 c 0
 632.147 685.961 644.762 675.374 652.462 662.038 c 0
 662.871 644.007 666.238 613.887 643.898 579.389 c 2
 640.562 574.363 l 2
 628.372 556.01 599.134 537.973 575.299 534.102 c 0
 551.464 530.23 542.013 541.985 554.203 560.339 c 2
 557.228 564.889 l 2
260.731 302.442 m 0
 219.418 278.59 177.638 237.172 162.183 175.354 c 0
 156.032 150.75 158.997 129.524 169.284 111.707 c 0
 193.961 68.9648 259.715 47.1719 333.673 47.1719 c 0
 391.587 47.1719 434.43 69.0508 452.193 79.3066 c 0
 482.771 96.9619 505.915 119.096 521.207 136.318 c 0
 537.862 155.074 568.391 170.438 589.351 170.61 c 0
 610.312 170.782 613.806 155.7 597.151 136.943 c 0
 564.142 99.7676 522.546 65.4736 475.771 38.4678 c 0
 440.168 17.9131 362.583 -20.79 272.633 -20.79 c 0
 195.824 -20.79 108.478 -0.265625 75.1943 57.3838 c 0
 62.2529 79.7998 57.9268 107.574 66.2998 141.066 c 0
 86.6025 222.279 150.873 293.467 237.153 343.281 c 0
 320.331 391.305 406.445 409.723 476.053 409.723 c 0
 496.859 409.723 500.072 394.499 483.226 375.742 c 0
 466.379 356.984 435.819 341.761 415.014 341.761 c 0
 340.974 341.761 287.278 317.77 260.731 302.442 c 0
EndSplineSet
Fore
548.878 545.994 m 0
 548.878 558.32 563.783 568.002 563.783 588.542 c 0
 563.783 617.011 536.903 635.991 459.966 635.991 c 0
 429.75 635.991 348.398 629.938 308.887 590.749 c 0
 295.411 577.382 277.302 547.406 277.302 515.342 c 0
 277.302 430.847 394.449 409.723 476.053 409.723 c 0
 487.884 409.723 494.027 404.8 494.027 397.104 c 0
 494.027 374.967 446.619 341.761 415.013 341.761 c 0
 244.428 341.761 159.063 224.945 159.063 151.164 c 0
 159.063 86.0435 231.692 47.1719 333.673 47.1719 c 0
 408.687 47.1719 473.545 82.6433 521.207 136.318 c 0
 537.991 155.22 568.293 170.611 589.705 170.611 c 0
 601.519 170.611 607.674 165.694 607.674 157.992 c 0
 607.674 152.234 604.235 144.921 597.151 136.943 c 0
 526.108 56.9332 402.44 -20.79 272.633 -20.79 c 0
 185.76 -20.79 61.8451 8.79042 61.8451 107.096 c 0
 61.8451 162.507 109.464 285.072 274.525 362.949 c 1
 221.786 381.65 180.366 415.023 180.366 471.703 c 0
 180.366 585.095 331.409 703.953 521.005 703.953 c 0
 623.713 703.953 660.825 674.678 660.825 630.766 c 0
 660.825 576.641 606.257 533.364 566.829 533.364 c 0
 555.322 533.364 548.878 538.146 548.878 545.994 c 0
EndSplineSet
EndChar
StartChar: F
Encoding: 70 70 7
Width: 878
Flags: HMW
Back
143.163 90.7314 m 0
 167.823 48.0166 212.785 30.9072 254.452 32.6758 c 0
 256.916 32.7803 257.915 32.8857 259.405 33.3564 c 0
 259.407 33.3574 258.577 32.9766 258.56 32.9668 c 1
 261.351 34.5781 267.438 40.4102 272.23 46.1318 c 0
 276.591 51.3379 281.214 57.8125 285.388 64.9248 c 0
 333.302 146.559 374.259 230.976 407.533 316.947 c 0
 447.598 420.463 475.477 525.648 490.396 630.021 c 0
 492.611 645.525 516.063 666.677 542.743 677.233 c 0
 569.424 687.789 589.278 683.772 587.062 668.268 c 0
 571.737 561.059 543.075 452.692 501.545 345.389 c 0
 467.13 256.47 424.623 168.75 374.46 83.2832 c 0
 367.911 72.125 360.166 60.9814 350.834 49.8389 c 0
 334.701 30.5781 312.999 9.94531 282.138 -7.87207 c 0
 269.58 -15.1221 254.592 -22.3496 237.763 -27.6719 c 0
 222.984 -32.3467 209.297 -34.6904 197.17 -35.2051 c 0
 110.66 -38.876 66.751 5.78906 49.0732 36.4082 c 0
 48.1953 37.9287 47.3389 39.4619 46.2549 41.5391 c 0
 40.2256 53.084 56.502 74.4521 82.5859 89.2354 c 0
 108.67 104.019 134.732 106.647 140.762 95.1016 c 0
 141.686 93.333 142.415 92.0264 143.163 90.7314 c 0
868.772 602.368 m 0
 860.903 615.998 804.491 615.163 779.222 615.163 c 2
 443.659 615.163 l 2
 396.217 615.163 359.272 602.302 339.659 590.979 c 0
 331.502 586.269 323.665 580.26 316.975 573.026 c 0
 307.854 563.165 297.855 547.809 292.762 527.436 c 0
 288.713 511.24 263.949 490.415 237.485 480.952 c 0
 211.021 471.489 192.829 476.953 196.879 493.148 c 0
 203.851 521.038 218.601 548.194 243.082 574.664 c 0
 253.735 586.183 276.308 608.854 316.082 631.817 c 0
 381.554 669.617 450.963 683.125 504.698 683.125 c 2
 840.261 683.125 l 2
 869.529 683.125 946.023 685.856 962.862 656.69 c 0
 963.422 655.721 964.803 652.635 965.156 651.552 c 0
 967.348 644.856 967.511 644.668 965.258 631.986 c 0
 962.462 616.256 936.444 594.967 909.98 585.504 c 0
 883.517 576.041 865.653 581.623 869.374 597.7 c 0
 869.868 599.832 869.748 599.836 869.312 601.168 c 0
 869.229 601.421 869.236 601.564 868.772 602.368 c 0
729.009 297.167 m 1
 424.001 297.168 l 2
 403.184 297.168 399.968 312.4 416.824 331.168 c 0
 433.681 349.936 464.258 365.168 485.076 365.168 c 2
 790.083 365.167 l 2
 804.15 365.167 810.252 359.271 807.516 348.321 c 2
 804.797 337.444 l 2
 800.747 321.24 775.97 300.404 749.49 290.935 c 0
 723.011 281.466 704.808 286.932 708.858 303.136 c 2
 711.577 314.013 l 1
 724.011 322.115 738.008 324.917 742.818 320.268 c 0
 747.63 315.618 741.443 305.27 729.009 297.167 c 1
EndSplineSet
Fore
966 642 m 0
 966 605 909 581 887 581 c 0
 868 581 870 590 870 599 c 0
 870 614 818 615 793 615 c 2
 578 615 l 1
 562 525 536 440 509 365 c 1
 790 365 l 2
 804 365 810 359 808 348 c 2
 805 337 l 2
 800 317 758 286 726 286 c 0
 716 286 709 290 708 297 c 1
 482 297 l 1
 424 159 364 66 351 50 c 0
 301 -10 239 -35 184 -35 c 0
 91 -35 45 33 45 47 c 0
 45 69 92 102 124 102 c 0
 132 102 138 100 141 95 c 0
 163 53 205 33 249 33 c 2
 259 33 l 1
 291 53 445 334 488 615 c 1
 444 615 l 2
 412 615 349 607 317 573 c 0
 308 563 298 548 293 527 c 0
 288 507 246 476 214 476 c 0
 203 476 196 481 196 489 c 0
 196 490 196 492 197 493 c 0
 222 595 362 683 505 683 c 2
 840 683 l 2
 928 683 966 675 966 642 c 0
EndSplineSet
EndChar
StartChar: G
Encoding: 71 71 8
Width: 743
Flags: HMW
Back
603.829 562.565 m 0
 609.539 572.544 613.982 590.354 604.646 606.524 c 0
 602.01 611.092 595.081 620.367 582.103 623.959 c 0
 552.979 632.02 522.285 635.991 491.259 635.991 c 0
 445.44 635.991 376.823 629.137 317.627 594.96 c 0
 266.155 565.242 209.48 505.778 183.861 403.3 c 0
 167.165 336.517 174.9 272.733 202.682 224.614 c 0
 233.803 170.708 287.583 139.264 351.641 136.279 c 0
 406 133.748 446.748 152.94 466.385 164.278 c 0
 511.492 190.32 565.637 245.043 585.485 324.438 c 0
 589.534 340.634 614.298 361.458 640.762 370.922 c 0
 667.226 380.385 685.418 374.921 681.369 358.726 c 0
 658.503 267.261 588.137 180.12 489.963 123.439 c 0
 419.523 82.7705 347.987 65.5576 286.941 68.4014 c 0
 200.823 72.4131 141.005 114.146 108.591 170.291 c 0
 77.7725 223.671 68.9932 293.075 87.9775 369.013 c 0
 115.838 480.455 186.02 573.428 294.049 635.799 c 0
 338.689 661.571 427.37 703.953 552.298 703.953 c 0
 590.416 703.953 626.21 699.135 659.377 689.955 c 0
 678.502 684.662 691.056 674.151 698.736 660.848 c 0
 715.274 632.201 703.533 599.492 693.363 581.722 c 0
 676.722 552.643 655.526 524.16 629.188 496.929 c 0
 611.08 478.207 580.38 463.96 560.661 465.125 c 0
 540.941 466.291 539.634 482.431 557.741 501.152 c 0
 574.767 518.755 590.703 539.629 603.829 562.565 c 0
363.799 -50.0264 m 0
 368.116 -50.0264 379.934 -49.8535 392.142 -47.1055 c 0
 401.221 -45.0615 408.243 -42.1143 413.707 -38.96 c 0
 425.691 -32.041 421.091 -34.3047 425.561 -30.6914 c 0
 496.008 26.25 547.293 171.672 585.485 324.438 c 0
 589.534 340.634 614.298 361.458 640.762 370.922 c 0
 667.226 380.385 685.418 374.921 681.369 358.726 c 0
 622.871 124.736 562.077 15.9375 479.812 -50.5566 c 0
 467.086 -60.8428 452.778 -70.8535 437.285 -79.7988 c 0
 422.368 -88.4111 392.52 -103.834 356.409 -111.964 c 0
 337.731 -116.169 320.049 -117.988 302.76 -117.987 c 0
 231.515 -117.987 165.789 -105.175 107.425 -80.8018 c 0
 93.085 -74.8145 99.7949 -55.5273 122.402 -37.751 c 0
 145.011 -19.9756 174.996 -10.4082 189.336 -16.3965 c 0
 243.096 -38.8457 302.66 -50.0254 363.799 -50.0264 c 0
EndSplineSet
Fore
177.042 -14.135 m 0
 195.718 -14.135 249.411 -50.0264 363.799 -50.0264 c 0
 401.293 -50.0264 416.858 -37.726 425.561 -30.6914 c 0
 468.232 3.80041 503.874 70.7556 533.833 152.143 c 1
 462.289 99.6143 376.08 68.0581 297.493 68.0581 c 0
 166.307 68.0581 78.8502 157.787 78.8502 292.381 c 0
 78.8502 498.644 275.685 703.953 552.298 703.953 c 0
 590.416 703.953 626.21 699.135 659.377 689.955 c 0
 692.854 680.69 706.683 656.076 706.683 629.174 c 0
 706.683 613.256 701.841 596.537 693.363 581.722 c 0
 683.628 564.711 624.668 465.03 563.896 465.03 c 0
 547.493 465.03 544.972 472.613 544.972 477.668 c 0
 544.972 498.758 609.432 541.877 609.432 589.336 c 0
 609.432 609.699 595.417 620.274 582.103 623.959 c 0
 552.979 632.02 522.285 635.991 491.259 635.991 c 0
 226.665 635.991 175.098 419.932 175.098 334.35 c 0
 175.098 224.87 245.555 136.055 361.253 136.055 c 0
 468.762 136.055 559.429 220.215 585.485 324.438 c 0
 590.568 344.77 632.245 375.565 663.904 375.565 c 0
 675.044 375.565 681.933 371.111 681.933 362.996 c 0
 681.933 361.669 681.749 360.245 681.369 358.726 c 0
 638.069 185.588 565.648 -64.8561 356.409 -111.964 c 0
 337.731 -116.169 320.049 -117.987 302.76 -117.987 c 0
 231.515 -117.987 165.79 -105.172 107.425 -80.8018 c 0
 102.141 -78.5955 99.837 -74.9494 99.837 -70.4671 c 0
 99.837 -50.5536 145.317 -14.135 177.042 -14.135 c 0
EndSplineSet
EndChar
StartChar: H
Encoding: 72 72 9
Width: 1057
Flags: HMW
Back
344.661 369.56 m 0
 361.07 435.196 371.362 500.775 375.384 565.395 c 0
 376.02 575.622 373.804 585.172 369.281 593.005 c 0
 359.545 609.869 342.256 615.17 330.521 615.163 c 0
 303.47 615.147 252.294 612.892 212.524 589.931 c 0
 193.634 579.024 168.873 558.394 143.188 518.077 c 0
 131.557 499.818 102.546 481.512 78.4336 477.215 c 0
 54.3203 472.917 44.1914 484.248 55.8232 502.507 c 0
 87.6309 552.436 130.699 597.141 188.946 630.77 c 0
 259.986 671.784 330.915 683.089 391.51 683.125 c 0
 401.612 683.131 443.292 682.106 463.371 647.327 c 0
 469.991 635.861 473.308 622.105 472.323 606.296 c 0
 468.178 539.678 457.564 471.926 440.544 403.847 c 0
 407.303 270.877 363.168 138.028 308.522 6.58398 c 0
 301.371 -10.6172 274.63 -30.6494 248.83 -38.1299 c 0
 223.031 -45.6113 207.896 -37.7217 215.048 -20.5215 c 0
 268.587 108.265 311.959 238.75 344.661 369.56 c 0
802.776 265.272 m 0
 785.959 198.006 775.333 130.798 771.053 64.5498 c 0
 770.382 54.1729 772.612 44.4424 777.165 36.5566 c 0
 786.435 20.502 802.777 15.165 814.098 15.6367 c 0
 847.968 17.0469 879.088 21.7764 888.189 26.3008 c 0
 888.228 26.3193 881.554 22.5029 887.236 25.7832 c 1
 884.524 24.2178 882.1 22.5439 881.584 21.748 c 1
 882.972 23.8896 884.466 27.0752 885.69 31.9697 c 0
 889.739 48.165 914.503 68.9893 940.967 78.4521 c 0
 967.431 87.915 985.622 82.4512 981.573 66.2559 c 0
 979.171 56.6484 975.253 47.0449 968.56 36.7109 c 0
 956.36 17.8789 937.104 0.12207 910.813 -15.0557 c 0
 905.132 -18.3369 900.701 -20.5791 898.149 -21.8467 c 0
 855.393 -43.1025 810.837 -49.9951 756.74 -52.2471 c 0
 717.39 -53.8848 693.768 -36.2861 683.075 -17.7666 c 0
 676.389 -6.18457 673.085 7.75 674.117 23.7227 c 0
 678.525 91.9492 689.473 161.307 706.893 230.985 c 0
 740.738 366.371 785.474 501.636 840.72 635.52 c 0
 847.811 652.703 874.517 672.753 900.333 680.273 c 0
 926.148 687.795 941.346 679.953 934.255 662.77 c 0
 880.081 531.486 836.092 398.538 802.776 265.272 c 0
227.587 273.422 m 2
 206.769 273.422 203.553 288.653 220.41 307.422 c 0
 237.267 326.189 267.843 341.422 288.661 341.422 c 2
 752.338 341.422 l 2
 773.156 341.422 776.371 326.19 759.515 307.422 c 0
 742.658 288.654 712.082 273.422 691.264 273.422 c 2
 227.587 273.422 l 2
EndSplineSet
Fore
213.276 -28.3644 m 0
 213.276 -15.8953 263.847 82.3938 318.957 273.422 c 1
 227.587 273.422 l 2
 215.749 273.422 209.602 278.347 209.602 286.048 c 0
 209.602 308.197 257.038 341.422 288.661 341.422 c 2
 337.365 341.422 l 1
 358.877 426.779 375.492 526.945 375.492 568.837 c 0
 375.492 595.217 356.326 615.163 330.551 615.163 c 0
 227.23 615.163 182.422 579.661 143.188 518.077 c 0
 126.412 491.744 91.4599 477.014 69.7056 477.014 c 0
 58.5617 477.014 50.881 480.88 50.881 489.03 c 0
 50.881 492.66 52.4043 497.14 55.8232 502.507 c 0
 116.422 597.63 227.43 683.125 391.57 683.125 c 0
 426.802 683.125 472.511 664.845 472.511 612.234 c 0
 472.511 559.784 451.772 443.034 424.277 341.422 c 1
 736.642 341.422 l 1
 779.222 486.869 829.315 607.881 840.72 635.52 c 0
 850.01 658.033 890.752 683.125 917.983 683.125 c 0
 929.249 683.125 935.997 678.55 935.997 670.54 c 0
 935.997 668.227 935.434 665.628 934.255 662.77 c 0
 817.744 380.343 770.936 146.026 770.936 60.9408 c 0
 770.936 33.6596 791.374 15.6046 812.552 15.6046 c 0
 833.512 15.6046 869.194 20.3132 882.552 24.2277 c 1
 898.268 70.7654 949.844 83.0948 964.109 83.0948 c 0
 975.248 83.0948 982.137 78.6413 982.137 70.5263 c 0
 982.137 46.6913 940.779 -44.5849 756.74 -52.2471 c 0
 755.006 -52.3193 753.297 -52.3549 751.613 -52.3549 c 0
 701.84 -52.3549 673.937 -21.2231 673.937 18.2021 c 0
 673.937 66.433 693.315 180.057 719.579 280.048 c 1
 709.581 275.884 699.634 273.422 691.264 273.422 c 2
 404.719 273.422 l 1
 364.325 140.527 319.21 32.2918 308.522 6.58398 c 0
 299.17 -15.9122 258.505 -40.9551 231.29 -40.9551 c 0
 220.02 -40.9551 213.276 -36.3725 213.276 -28.3644 c 0
EndSplineSet
EndChar
StartChar: I
Encoding: 73 73 10
Width: 707
Flags: HMW
Back
403.702 615.163 m 2
 309.065 615.163 229.506 613.266 182.344 595.74 c 0
 177.011 593.758 173.845 592.134 172.421 591.312 c 0
 167.239 588.32 162.768 580.285 160.236 574.141 c 0
 159.35 571.988 158.038 568.523 156.826 563.677 c 0
 152.777 547.481 128.014 526.657 101.55 517.193 c 0
 75.0859 507.73 56.8936 513.194 60.9424 529.39 c 0
 61.9854 533.559 63.7305 539.679 66.6885 546.858 c 0
 79.6484 578.318 107.691 608.393 148.843 632.15 c 0
 164.466 641.171 179.947 648.094 194.591 653.535 c 0
 280.425 685.431 394.29 683.125 464.742 683.125 c 2
 743.33 683.125 l 2
 764.136 683.125 767.35 667.901 750.503 649.145 c 0
 733.656 630.387 703.097 615.163 682.29 615.163 c 2
 403.702 615.163 l 2
537.135 615.78 m 1
 537.09 615.754 538.276 616.507 538.136 616.398 c 0
 486.391 576.689 439.537 366.183 437.673 358.726 c 0
 402.175 216.731 367.499 136.906 316.967 82.1064 c 0
 301.075 64.873 280.29 46.625 253.314 31.0508 c 0
 215.583 9.2666 177.453 0.0390625 145.448 0.0390625 c 0
 124.642 0.0390625 121.428 15.2627 138.275 34.0195 c 0
 155.122 52.7773 185.682 68.001 206.488 68.001 c 0
 216.28 68.001 225.864 69.6543 229.737 71.8896 c 0
 230.718 72.4561 235.439 75.4648 242.918 83.5752 c 0
 286.896 131.268 317.59 227.642 341.789 324.438 c 0
 386.406 502.909 417.145 585.137 488.254 639.705 c 0
 492.909 643.277 501.711 649.78 513.558 656.619 c 0
 534.049 668.45 554.046 675.505 568.955 678.976 c 0
 581.849 681.978 593.339 683.125 604.035 683.125 c 0
 624.842 683.125 628.056 667.901 611.209 649.145 c 0
 594.362 630.387 563.803 615.163 542.996 615.163 c 0
 539.442 615.163 536.214 614.81 534.331 614.371 c 0
 533.315 614.135 535.38 614.767 537.135 615.78 c 1
519.907 68.001 m 2
 544.576 68 563.02 70.8633 574.949 74.1211 c 0
 584.916 76.8428 582.535 76.457 583.188 76.834 c 1
 581.43 75.8193 579.583 74.416 579.231 73.9502 c 1
 581.014 76.3105 582.839 80.1934 584.123 85.3262 c 0
 588.172 101.522 612.936 122.347 639.399 131.81 c 0
 665.863 141.272 684.055 135.809 680.006 119.613 c 0
 675.833 102.919 667.559 90.2637 661.81 82.6475 c 0
 655.107 73.7705 637.46 53.7168 606.766 35.9951 c 0
 584.331 23.043 563.114 15.6201 546.387 11.0518 c 0
 508.714 0.762695 474.394 0.0390625 458.867 0.0390625 c 2
 40.9746 0.0380859 l 2
 20.168 0.0380859 16.9541 15.2617 33.8018 34.0195 c 0
 50.6484 52.7764 81.208 68 102.014 68 c 2
 519.907 68.001 l 2
EndSplineSet
Fore
761 671 m 0
 761 648 714 615 682 615 c 2
 536 615 l 1
 485 571 440 366 438 359 c 0
 404 226 368 129 303 68 c 1
 520 68 l 2
 556 68 575 74 580 76 c 1
 582 78 587 113 639 132 c 0
 648 135 656 136 663 136 c 0
 674 136 681 132 681 124 c 0
 681 95 619 0 459 0 c 2
 41 0 l 2
 29 0 23 5 23 13 c 0
 23 35 70 68 102 68 c 2
 206 68 l 2
 228 68 233 73 243 84 c 0
 347 196 344 493 461 615 c 1
 404 615 l 2
 182 615 169 594 160 574 c 0
 159 572 155 536 102 517 c 0
 93 514 85 513 78 513 c 0
 67 513 60 517 60 525 c 0
 60 551 99 618 195 654 c 0
 270 681 366 683 436 683 c 2
 743 683 l 2
 755 683 761 678 761 671 c 0
EndSplineSet
EndChar
StartChar: J
Encoding: 74 74 11
Width: 842
Flags: HMW
Back
643.146 615.163 m 2
 583.115 615.163 531.9 598.64 497.916 579.019 c 0
 454.275 553.822 425.932 515.81 414.756 471.099 c 0
 410.707 454.903 385.941 434.079 359.479 424.615 c 0
 333.014 415.152 314.822 420.616 318.871 436.812 c 0
 337.193 510.103 395.994 574.625 474.338 619.857 c 0
 551.541 664.431 634.574 683.125 704.186 683.125 c 2
 957.545 683.125 l 2
 978.352 683.125 981.564 667.901 964.719 649.144 c 0
 947.871 630.387 917.312 615.163 896.506 615.163 c 2
 643.146 615.163 l 2
189.738 25.2295 m 0
 218.01 -23.7393 281.967 -50.0254 351.062 -50.0264 c 0
 400.805 -50.0264 437.816 -32.6377 455.965 -22.1592 c 0
 496.531 1.26172 544.719 49.3428 562.256 119.487 c 0
 618.062 342.718 666.5 517.902 781.092 613.944 c 0
 794.549 625.224 809.955 636.266 826.857 646.023 c 0
 834.902 650.669 870.285 671.304 916.441 679.491 c 0
 930.625 682.007 944.209 683.125 957.545 683.125 c 0
 978.352 683.125 981.564 667.901 964.719 649.144 c 0
 947.871 630.387 917.312 615.163 896.506 615.163 c 0
 887.908 615.163 880.365 614.413 874.188 613.317 c 0
 872.434 613.006 860.92 611.238 850.434 605.185 c 0
 847.137 603.28 843.25 600.663 838.256 596.478 c 0
 751.215 523.525 697.869 312.691 658.139 153.774 c 0
 636.947 69.0059 570.668 -10.3877 479.543 -62.998 c 0
 413.162 -101.323 346.076 -117.987 290.023 -117.987 c 0
 200.414 -117.987 127.137 -83.6338 95.6484 -29.0938 c 0
 78.5371 0.545898 72.6621 37.0703 83.4082 80.0547 c 0
 87.457 96.25 112.222 117.075 138.686 126.538 c 0
 165.15 136.001 183.342 130.537 179.293 114.342 c 0
 170.869 80.6455 175.264 50.3027 189.738 25.2295 c 0
EndSplineSet
Fore
179.857 118.612 m 0
 179.857 113.529 175.04 100.457 175.04 81.1043 c 0
 175.04 2.8338 249.688 -50.0249 351.062 -50.0264 c 0
 450.66 -50.0264 537.649 21.064 562.256 119.487 c 0
 587.473 220.351 638.321 488.566 782.527 615.163 c 1
 643.146 615.163 l 2
 566.426 615.163 443.154 584.692 414.756 471.099 c 0
 409.673 450.767 367.996 419.972 336.337 419.972 c 0
 325.196 419.972 318.307 424.426 318.307 432.542 c 0
 318.307 433.868 318.491 435.293 318.871 436.812 c 0
 352.382 570.811 529.091 683.125 704.186 683.125 c 2
 957.545 683.125 l 2
 969.377 683.125 975.519 678.202 975.519 670.506 c 0
 975.519 648.369 928.111 615.163 896.506 615.163 c 0
 863.456 615.163 849.382 605.802 838.256 596.478 c 0
 751.215 523.525 697.869 312.691 658.139 153.774 c 0
 620.454 3.0372 443.457 -117.987 290.023 -117.987 c 0
 178.269 -117.987 77.9939 -62.0815 77.9939 38.1835 c 0
 77.9939 81.2307 89.5921 108.982 138.686 126.538 c 0
 147.486 129.685 155.371 131.181 161.828 131.181 c 0
 172.968 131.181 179.857 126.727 179.857 118.612 c 0
EndSplineSet
EndChar
StartChar: K
Encoding: 75 75 12
Width: 935
Flags: HMW
Back
194.484 390.12 m 0
 213.672 466.868 224.51 543.536 226.763 618.69 c 1
 200.488 605.435 l 2
 173.896 592.019 149.794 591.771 146.688 604.88 c 0
 143.58 617.989 162.64 639.517 189.23 652.933 c 2
 270.076 693.722 l 2
 284.535 701.017 297.067 704.391 307.943 703.916 c 0
 318.819 703.442 324.2 699.288 324.204 691.362 c 0
 324.244 604.199 312.913 514.588 290.368 424.407 c 0
 257.092 291.306 212.926 158.325 158.249 26.748 c 0
 151.101 9.54785 124.361 -10.4854 98.5605 -17.9688 c 0
 72.7607 -25.4512 57.623 -17.5654 64.7705 -0.365234 c 0
 118.344 128.557 161.748 259.177 194.484 390.12 c 0
775.781 629.425 m 0
 771.043 637.633 759.791 646.448 742.703 646.448 c 0
 706.126 646.447 602.572 605.529 504.606 548.968 c 0
 425.381 503.227 377.717 462.75 366.539 441.724 c 0
 365.388 439.558 364.708 437.781 364.332 436.274 c 0
 359.898 418.543 376.83 356.534 429.566 265.193 c 0
 467.776 199.014 577.297 40.4434 644.312 36.75 c 0
 644.545 36.7373 591.387 36.7158 645.491 36.7158 c 0
 694.401 36.7148 735.029 47.6533 759.37 61.7061 c 0
 778.306 72.6387 790.424 87.3145 795.645 108.199 c 0
 799.474 123.516 818.863 139.353 838.925 143.549 c 0
 858.987 147.746 872.161 138.722 868.332 123.405 c 0
 863.862 105.526 848.034 58.3926 782.972 20.8281 c 0
 724.736 -12.7939 657.702 -20.8232 612.902 -20.8232 c 0
 558.798 -20.8232 607.694 -20.6797 607.692 -20.6797 c 0
 512.109 -15.4121 401.474 151.884 359.432 224.7 c 0
 329.559 276.441 279.79 373.653 291.645 421.068 c 0
 293.211 427.335 295.807 433.701 299.151 439.991 c 0
 330.451 498.868 431.774 561.423 481.005 589.846 c 0
 562.668 636.995 703.841 703.986 775.292 703.986 c 0
 784.153 703.986 826.472 703.598 845.917 669.918 c 0
 854.667 654.762 855.045 637.841 851.195 622.445 c 0
 847.366 607.13 827.977 591.293 807.915 587.097 c 0
 787.854 582.899 774.68 591.924 778.509 607.24 c 0
 780.511 615.248 779.529 622.935 775.781 629.425 c 0
EndSplineSet
Fore
778 602 m 0
 778 607 780 609 780 615 c 0
 780 634 763 646 743 646 c 0
 664 646 364 487 364 430 c 0
 364 342 553 42 645 37 c 0
 705 37 782 52 796 108 c 0
 800 127 827 145 848 145 c 0
 861 145 869 138 869 128 c 0
 869 127 869 125 868 123 c 1
 843 22 714 -21 610 -21 c 0
 485 -14 290 300 290 406 c 0
 290 515 664 704 775 704 c 0
 828 704 854 671 854 640 c 0
 854 608 826 586 799 586 c 0
 786 586 778 592 778 602 c 0
63 -8 m 0
 63 8 218 337 227 619 c 1
 200 605 l 2
 187 599 174 595 164 595 c 0
 155 595 146 599 146 608 c 0
 146 621 165 640 189 653 c 2
 270 694 l 2
 285 701 297 704 306 704 c 0
 310 704 324 704 324 691 c 0
 324 604 312.685 514.079 290 424 c 0
 256.535 291.117 213 158 158 27 c 0
 149 4 108 -21 81 -21 c 0
 70 -21 63 -16 63 -8 c 0
EndSplineSet
EndChar
StartChar: L
Encoding: 76 76 13
Width: 850
Flags: HMW
Back
678.878 17.1748 m 0
 653.522 2.53516 605.253 -20.5352 551.526 -20.5352 c 0
 417.598 -20.5352 311.858 30.9268 187.031 30.9258 c 0
 182.489 30.9258 171.622 29.998 167.352 27.5322 c 0
 166.317 26.9355 162.828 24.375 158.187 19.1826 c 0
 140.476 -0.632812 107.202 -18.3438 83.916 -20.3516 c 0
 60.6309 -22.3594 56.1064 -7.90625 73.8184 11.9082 c 0
 91.0039 31.1357 115.042 51.4082 143.937 68.0898 c 0
 187.224 93.0811 228.948 103.088 259.38 103.088 c 0
 393.31 103.088 499.049 51.626 623.876 51.626 c 0
 636.765 51.626 650.195 54.6904 655.462 57.7314 c 0
 658.522 59.498 664.854 65.9912 669.642 74.0889 c 0
 673.008 79.7842 676.167 86.9385 678.205 95.0908 c 0
 682.282 111.399 709.104 133.914 738.074 145.347 c 0
 767.045 156.779 787.248 152.822 783.171 136.514 c 0
 779.78 122.951 774.72 111.496 767.874 99.915 c 0
 742.954 57.7578 699.393 29.0186 678.878 17.1748 c 0
604.097 593.985 m 0
 587.521 622.696 558.475 631.537 537.656 631.537 c 0
 532.733 631.538 523.631 631.38 512.904 629.428 c 0
 501.332 627.323 493.821 624.289 487.967 620.909 c 0
 476.885 614.511 474.967 611.648 474.423 611.193 c 0
 419.434 565.189 358.773 453.947 313.572 273.145 c 0
 277.249 127.852 201.17 49.2852 142.681 5.15625 c 0
 117.4 -13.917 84.9326 -24.7422 70.2061 -19.0068 c 0
 55.4795 -13.2725 64.0449 6.8623 89.3242 25.9346 c 0
 133.425 59.208 182.192 126.069 208.606 231.722 c 0
 259.597 435.683 327.508 554.132 410.954 623.942 c 0
 426.514 636.96 444.561 649.925 464.552 661.466 c 0
 501.377 682.727 535.937 694.278 565.275 699.615 c 0
 580.847 702.448 595.594 703.699 610.006 703.699 c 0
 659.857 703.699 691.494 681.357 707.479 653.672 c 0
 717.406 636.477 726.728 607.221 716.734 567.245 c 0
 712.657 550.937 685.836 528.422 656.865 516.989 c 0
 627.895 505.557 607.691 509.514 611.769 525.822 c 0
 618.021 550.831 614.912 575.252 604.097 593.985 c 0
EndSplineSet
Fore
611.246 521.876 m 0
 611.246 527.717 614.964 533.558 614.964 551.08 c 0
 614.964 596.676 582.595 631.537 537.656 631.537 c 0
 499.719 631.537 483.866 619.092 474.423 611.193 c 0
 419.434 565.189 358.773 453.947 313.572 273.145 c 0
 296.222 203.746 267.859 146.371 236.26 101.31 c 1
 244.314 102.487 252.062 103.088 259.38 103.088 c 0
 393.31 103.088 499.049 51.626 623.876 51.626 c 0
 643.619 51.626 667.91 53.9085 678.205 95.0908 c 0
 684.069 118.548 735.203 151.881 766.82 151.881 c 0
 777.31 151.881 783.694 147.926 783.694 140.46 c 0
 783.694 139.238 783.523 137.922 783.171 136.514 c 0
 762.938 55.5869 646.791 -20.5352 551.526 -20.5352 c 0
 417.598 -20.5352 311.858 30.9258 187.031 30.9258 c 0
 181.135 30.9258 176.774 30.5313 173.292 29.6811 c 1
 130.653 -8.42933 98.6491 -20.6223 79.9883 -20.6223 c 0
 70.9817 -20.6223 63 -17.2875 63 -9.11445 c 0
 63 5.0831 89.8768 30.7641 115.931 49.7644 c 1
 151.908 87.2851 187.436 147.044 208.606 231.722 c 0
 255.762 420.341 327.214 582.177 464.552 661.466 c 0
 515.504 690.882 566.533 703.699 610.006 703.699 c 0
 677.851 703.699 721.04 660.445 721.04 600.855 c 0
 721.04 570.757 715.055 539.953 656.865 516.989 c 0
 645.678 512.574 635.798 510.455 628.119 510.455 c 0
 617.629 510.455 611.246 514.41 611.246 521.876 c 0
EndSplineSet
EndChar
StartChar: M
Encoding: 77 77 14
Width: 1423
Flags: HMW
Back
644.922 270.493 m 0
 657.997 237.594 673.28 205.996 690.679 175.859 c 0
 702.977 154.558 716.332 133.986 730.71 114.2 c 1
 697.302 85.8994 l 1
 682.435 34.3164 l 1
 675.129 34.3232 669.271 36.2842 666.057 40.3467 c 0
 644.281 67.8613 624.539 96.96 606.91 127.496 c 0
 588.951 158.603 573.186 191.199 559.699 225.135 c 0
 519.677 325.842 484.454 429.153 454.115 534.811 c 1
 437.23 453.71 413.95 372.072 384.507 291.175 c 0
 377.811 272.777 370.8 254.421 363.48 236.122 c 0
 325.421 140.972 248.846 -58.3623 162.714 -52.9658 c 0
 144.583 -51.8301 127.293 -48.3018 111.205 -42.4463 c 0
 107.216 -40.9941 103.3 -39.3984 99.4639 -37.6592 c 0
 86.2334 -31.6621 74.4395 -24.5107 65.4053 -15.71 c 0
 55.4043 -5.96875 57.3262 23.6123 69.6953 50.3193 c 0
 82.0645 77.0264 100.219 90.7949 110.22 81.0537 c 0
 120.104 71.4258 134.998 64.8223 137.941 63.4883 c 0
 141.293 61.9688 144.727 60.5684 148.234 59.292 c 0
 162.379 54.1445 177.732 50.999 193.843 49.9893 c 0
 232.071 47.5938 267.012 121.754 322.112 259.506 c 0
 328.473 275.409 334.551 291.323 340.348 307.248 c 0
 382.261 422.409 409.666 538.285 422.058 654.448 c 1
 422.326 654.359 l 1
 422.534 654.359 l 1
 422.441 667.228 438.308 684.99 460.181 695.721 c 0
 483.974 707.393 505.907 706.346 509.142 693.383 c 0
 545.396 548.048 590.727 406.863 644.922 270.493 c 0
1227.42 204.169 m 0
 1224.14 155.836 1226.15 108.521 1233.41 63.0449 c 0
 1234.04 59.0928 1235.31 55.5498 1237.07 52.4932 c 0
 1244.2 40.1465 1256.57 38.9873 1260.2 38.9707 c 1
 1272.8 45.3281 l 2
 1299.39 58.7432 1323.49 58.9951 1326.6 45.8857 c 0
 1329.71 32.7773 1310.65 11.25 1284.06 -2.16699 c 2
 1267.43 -10.5576 l 2
 1245.21 -21.7705 1224.52 -27.0879 1208.87 -28.5391 c 0
 1173.4 -31.8271 1152.3 -17.9775 1142.98 -1.83008 c 0
 1139.93 3.45801 1137.79 9.45312 1136.72 16.1455 c 0
 1129.17 63.5059 1127.06 112.848 1130.49 163.441 c 0
 1139.54 296.857 1156.5 431.554 1181.29 566.894 c 1
 1263.08 652.253 l 1
 1291.98 678.856 l 1
 1291.97 677.809 1291.85 676.699 1291.62 675.53 c 0
 1259.44 517.441 1237.98 359.962 1227.42 204.169 c 0
884.747 213.116 m 0
 824.289 152.597 761.164 94.9229 695.669 40.3242 c 0
 679.788 27.0859 667.632 36.7598 668.533 61.917 c 0
 669.436 87.0742 683.055 118.236 698.936 131.475 c 0
 762.506 184.469 823.548 240.262 881.727 298.498 c 0
 1010.7 427.603 1136.82 559.235 1259.94 693.245 c 0
 1275.75 710.454 1289.99 706.057 1291.72 683.429 c 0
 1293.46 660.802 1282.03 628.471 1266.22 611.262 c 0
 1141.96 476.025 1014.76 343.265 884.747 213.116 c 0
EndSplineSet
Fore
1278 704 m 0
 1286 704 1292 694 1292 679 c 0
 1292 666 1246 480 1227 204 c 0
 1226 190 1226 176 1226 161 c 0
 1226 53 1239 39 1260 39 c 1
 1273 45 l 2
 1286 52 1299 56 1309 56 c 0
 1318 56 1327 52 1327 43 c 0
 1327 30 1309 10 1284 -2 c 2
 1267 -11 l 2
 1244 -22 1220 -29 1199 -29 c 0
 1167 -29 1142 -14 1137 16 c 0
 1132 49 1129 82 1129 117 c 0
 1129 196 1149 376 1172 513 c 1
 885 213 l 2
 824 153 761 95 696 40 c 0
 691 36 686 34 682 34 c 0
 675 34 669 36 666 40 c 0
 623 95 587 156 560 225 c 0
 520 326 484 429 454 535 c 1
 437 454 414 372 385 291 c 2
 363 236 l 2
 325 142 251 -53 166 -53 c 0
 131 -53 87 -36 65 -16 c 0
 60 -11 58 -3 58 6 c 0
 58 37 84 84 103 84 c 0
 110 84 140 50 196 50 c 0
 233 50 268 124 322 260 c 2
 340 307 l 2
 382 422 410 538 422 654 c 1
 421 678 466 704 492 704 c 0
 501 704 507 701 509 693 c 0
 554 513 634 261 712 142 c 1
 771 192 827 244 882 298 c 2
 1260 693 l 2
 1266 700 1273 704 1278 704 c 0
EndSplineSet
EndChar
StartChar: N
Encoding: 78 78 15
Width: 1003
Flags: HMW
Back
935.464 641.652 m 1
 933.208 637.467 929.191 627.264 923.433 611.442 c 0
 909.67 573.629 893.344 517.693 881.172 475.53 c 0
 836.896 322.146 797.526 168.604 763.118 15.0957 c 1
 761.819 17.877 l 1
 713.925 17.877 l 1
 748.457 170.422 787.771 323.094 831.804 475.63 c 0
 844.146 518.388 860.893 577.014 879.273 627.516 c 0
 883.999 640.498 894.18 668 906.592 691.086 c 0
 913.213 703.4 921.89 717.188 932.166 726.892 c 0
 995.823 786.998 1077.23 786.402 1124.72 786.402 c 0
 1138.35 786.402 1142.77 763.331 1134.58 734.902 c 0
 1126.38 706.475 1108.67 683.402 1095.04 683.402 c 0
 1022.86 683.402 971.156 673.65 935.464 641.652 c 1
76.6816 63.3164 m 0
 79.8047 61.9258 82.9961 60.6367 86.251 59.4521 c 0
 100.667 54.2051 116.315 51.0068 132.734 49.9893 c 0
 163.242 48.0996 183.212 79.7852 212.742 160.921 c 0
 218.22 175.971 223.671 191.776 229.143 207.667 c 0
 288.528 380.115 313.922 531.928 323.218 654.502 c 1
 323.281 654.359 l 1
 376.742 654.359 l 1
 363.92 524.948 334.682 369.699 274.749 195.679 c 0
 269.271 179.774 263.362 162.6 256.901 144.848 c 0
 219.586 42.3223 169.409 -57.166 101.621 -52.9668 c 0
 83.1758 -51.8242 65.5869 -48.2422 49.2217 -42.2861 c 0
 45.5264 -40.9414 41.8945 -39.4756 38.3291 -37.8877 c 0
 24.7939 -31.8604 12.7061 -24.6426 3.46875 -15.7734 c 0
 -6.5752 -6.12793 -4.71875 23.4033 7.61426 50.1455 c 0
 19.9473 76.8867 38.1084 90.7617 48.1533 81.1162 c 0
 54.2549 75.2578 64.7656 68.6221 76.6816 63.3164 c 0
622.489 225.433 m 0
 629.278 212.437 636.323 199.614 643.622 186.971 c 0
 676.835 129.443 715.302 75.6289 758.68 26.0127 c 0
 767.339 16.1074 756.19 -3.58496 733.794 -17.9434 c 0
 711.398 -32.3027 686.193 -35.918 677.534 -26.0127 c 0
 633.132 24.7764 593.8 79.8086 559.854 138.607 c 0
 552.393 151.529 545.193 164.633 538.256 177.914 c 0
 458.742 330.148 387.37 487.546 324.349 649.639 c 0
 319.608 661.833 334.864 681.854 358.404 694.327 c 0
 381.943 706.801 404.896 707.028 409.637 694.834 c 0
 472.349 533.535 543.371 376.911 622.489 225.433 c 0
EndSplineSet
Fore
323.142 654.538 m 0
 323.142 674.538 362 704 391 704 c 0
 401 704 407 701 410 695 c 0
 491 487 595.376 271.217 644 187 c 0
 668.187 145.108 695 104 725 66 c 1
 758 204 853.494 591.734 907 691 c 0
 956.457 782.754 1069 786 1116 786 c 2
 1125 786 l 2
 1134 786 1139 776 1139 761 c 0
 1139 726 1113 683 1095 683 c 0
 1023 683 971 674 935 642 c 1
 907 589 809 222 763 16 c 1
 763 -4 723 -32 694 -32 c 0
 687 -32 681 -30 678 -26 c 0
 623 36 577.02 103.01 538 178 c 0
 475.031 299.016 417 424 364 552 c 1
 347 445 320 326 275 196 c 2
 257 145 l 2
 220 44 171 -53 106 -53 c 0
 70 -53 25 -37 3 -16 c 0
 -2 -11 -4 -3 -4 6 c 0
 -4 37 22 84 41 84 c 0
 48 84 78 50 135 50 c 0
 164 50 184 82 213 161 c 2
 229 208 l 2
 287.705 380.446 314.142 531.538 323.142 654.538 c 0
EndSplineSet
EndChar
StartChar: O
Encoding: 79 79 16
Width: 970
Flags: HMW
Back
369.401 619.938 m 0
 298.534 579.022 225.111 498.263 198.767 392.886 c 0
 179.673 316.507 184.743 236.754 223.22 170.109 c 0
 268.454 91.7588 350.872 47.1719 448.711 47.1719 c 0
 503.532 47.1719 570.519 60.3799 635.235 97.7441 c 0
 709.804 140.796 783.942 218.804 810.351 324.438 c 0
 831.203 407.849 823.034 488.49 789.604 546.396 c 0
 756.318 604.049 700.248 635.991 633.183 635.991 c 0
 604.534 635.991 582.732 628.453 565.045 618.242 c 0
 535.233 601.03 486.771 557.557 448.255 476.295 c 0
 439.951 458.775 412.556 439.118 387.104 432.418 c 0
 361.653 425.719 347.736 434.5 356.04 452.021 c 0
 390.318 524.344 449.976 606.258 541.468 659.081 c 0
 592.53 688.562 644.959 703.953 694.223 703.953 c 0
 787.556 703.953 849.281 660.323 883.693 600.718 c 0
 920.449 537.054 929.276 450.896 906.234 358.725 c 0
 876.638 240.34 785.315 129.941 658.813 56.9053 c 0
 564.014 2.17188 468.216 -20.79 387.671 -20.79 c 0
 264.474 -20.79 175.181 36.0215 129.129 115.786 c 0
 87.2314 188.357 82.0859 275.408 102.884 358.599 c 0
 132.019 475.139 220.604 588.48 345.823 660.776 c 0
 371.32 675.497 398.102 688.29 425.081 698.566 c 0
 451.691 708.701 470.907 704.116 467.973 688.332 c 0
 465.039 672.549 441.061 651.513 414.45 641.378 c 0
 398.513 635.309 383.714 628.201 369.401 619.938 c 0
EndSplineSet
Fore
90.9926 265.389 m 0
 90.9926 547.884 395.844 703.953 450.241 703.953 c 0
 461.337 703.953 468.269 699.543 468.269 691.385 c 0
 468.269 677.547 447.249 653.87 414.45 641.378 c 0
 278.649 589.656 187.71 445.186 187.71 307.75 c 0
 187.71 161.191 292.111 47.1719 448.711 47.1719 c 0
 637.861 47.1719 821.795 200.574 821.795 414.137 c 0
 821.795 540.204 749.739 635.991 633.183 635.991 c 0
 522.226 635.991 457.841 496.519 448.255 476.295 c 0
 437.772 454.178 398.562 430.17 371.641 430.17 c 0
 360.32 430.17 353.638 434.801 353.638 442.773 c 0
 353.638 468.4 488.546 703.953 694.223 703.953 c 0
 838.915 703.953 918.906 596.545 918.906 457.733 c 0
 918.906 183.526 629.4 -20.79 387.671 -20.79 c 0
 207.556 -20.79 90.9926 101.336 90.9926 265.389 c 0
EndSplineSet
EndChar
StartChar: P
Encoding: 80 80 17
Width: 876
Flags: HMW
Back
294.125 297.015 m 0
 321.919 408.19 338.952 519.249 344.937 628.577 c 0
 345.754 643.509 368.135 664.841 394.895 676.194 c 0
 421.654 687.547 442.708 684.644 441.891 669.712 c 0
 435.793 558.319 418.437 445.014 390.009 331.302 c 0
 361.58 217.589 322.216 104 272.354 -7.9834 c 0
 264.621 -25.3496 237.544 -45.1973 211.913 -52.2881 c 0
 186.282 -59.3779 171.756 -51.0381 179.488 -33.6719 c 0
 227.904 75.0645 266.331 185.839 294.125 297.015 c 0
186.156 583.055 m 0
 171.359 574.512 165.629 565.787 162.783 561.777 c 0
 152.65 547.502 148.748 532.64 147.447 527.435 c 0
 143.398 511.239 118.635 490.415 92.1709 480.952 c 0
 65.707 471.489 47.5146 476.953 51.5645 493.148 c 0
 58.1025 519.303 69.8203 538.535 78.2432 550.401 c 0
 97.751 577.884 124.549 601.938 162.579 623.894 c 0
 174.365 630.698 170.232 628.193 172.161 629.228 c 0
 217.437 653.519 295.217 683.125 423.934 683.125 c 0
 444.74 683.125 447.954 667.902 431.106 649.145 c 0
 414.26 630.387 383.7 615.163 362.895 615.163 c 0
 281.078 615.164 219.801 601.16 188.937 584.602 c 0
 187.818 584.001 189.678 585.088 186.156 583.055 c 0
686.743 324.743 m 0
 736.587 353.521 768.923 394.876 782.061 447.424 c 0
 790.174 479.878 786.559 506.519 773.834 528.56 c 0
 737.565 591.38 627.981 615.163 507.715 615.163 c 2
 362.895 615.163 l 2
 342.088 615.163 338.874 630.387 355.721 649.145 c 0
 372.568 667.902 403.127 683.125 423.934 683.125 c 2
 568.755 683.125 l 2
 674.938 683.125 820.646 664.773 867.924 582.882 c 0
 883.395 556.086 888.165 522.598 877.943 481.711 c 0
 857.705 400.757 794.869 332.718 710.321 283.903 c 0
 609.747 225.837 496.991 204.99 405.172 204.99 c 0
 384.365 204.99 381.151 220.213 397.998 238.971 c 0
 414.846 257.729 445.404 272.951 466.211 272.951 c 0
 556.878 272.952 636.444 295.702 686.743 324.743 c 0
EndSplineSet
Fore
883 523 m 0
 883 369 673 205 405 205 c 0
 393 205 387 210 387 218 c 0
 387 240 435 273 466 273 c 0
 557 273 636 296 687 325 c 0
 772 374 786 451 786 480 c 0
 786 588 633 615 508 615 c 2
 438 615 l 1
 416 362 340 145 272 -8 c 0
 262 -30 222 -55 195 -55 c 0
 184 -55 177 -50 177 -42 c 0
 177 -25 321 241 344 615 c 1
 203 611 160 579 147 527 c 0
 142 507 101 476 69 476 c 0
 58 476 51 481 51 489 c 0
 51 514 85 579 163 624 c 2
 172 629 l 2
 217 654 295 683 424 683 c 2
 569 683 l 2
 711 683 883 651 883 523 c 0
EndSplineSet
EndChar
StartChar: Q
Encoding: 81 81 18
Width: 1006
Flags: HMW
Back
532.352 64.5811 m 0
 566.146 75.208 597.837 89.2529 626.995 106.088 c 0
 717.822 158.527 781.892 237.245 803.69 324.438 c 0
 820.754 392.694 816.032 463.872 781.643 523.438 c 0
 740.175 595.265 663.824 635.991 574.365 635.991 c 0
 493.061 635.991 432.149 607.007 402.346 589.8 c 0
 322.865 543.911 269.69 469.949 250.628 393.698 c 0
 237.722 342.076 244.407 293.881 266.354 255.868 c 0
 297.969 201.107 358.636 170.471 426.55 170.471 c 0
 472.707 170.471 517.26 180.813 556.732 197.703 c 0
 583.496 209.155 604.699 206.394 604.06 191.538 c 0
 603.421 176.682 581.18 155.331 554.416 143.879 c 0
 488.35 115.609 423.861 102.509 365.51 102.509 c 0
 273.01 102.509 205.743 143.555 172.263 201.545 c 0
 147.523 244.396 139.488 298.388 154.744 359.412 c 0
 181.497 466.425 264.583 564.714 378.768 630.639 c 0
 425.102 657.39 520.931 703.953 635.404 703.953 c 0
 750.081 703.953 833.179 651.468 875.732 577.761 c 0
 913.544 512.269 918.34 433.793 899.573 358.726 c 0
 870.942 244.201 777.198 138.356 650.573 65.249 c 0
 610.954 42.375 563.609 20.1865 510.411 3.45801 c 0
 398.134 -31.8486 291.891 -33.9805 203.073 -33.9805 c 0
 182.268 -33.9805 179.054 -18.7578 195.9 0 c 0
 212.747 18.7578 243.307 33.9805 264.113 33.9805 c 0
 369.063 33.9805 450.451 38.8271 532.352 64.5811 c 0
772.456 -63.2178 m 0
 778.93 -63.2178 791.386 -62.8164 805.66 -59.0557 c 0
 814.842 -56.6357 820.783 -53.8496 824.146 -51.9072 c 0
 829.956 -48.5537 836.593 -42.2637 841.939 -31.6934 c 0
 844.036 -27.5488 845.944 -22.6572 847.322 -17.1436 c 0
 851.371 -0.948242 876.136 19.877 902.6 29.3398 c 0
 929.063 38.8027 947.255 33.3389 943.206 17.1436 c 0
 941.662 10.9697 938.855 1.82324 933.364 -9.03223 c 0
 917.076 -41.2324 887.645 -69.6982 847.725 -92.7461 c 0
 823.25 -106.877 798.377 -116.525 775.611 -122.524 c 0
 752.732 -128.552 731.381 -131.18 711.417 -131.18 c 0
 523.418 -131.179 378.043 -33.9805 203.073 -33.9805 c 0
 182.268 -33.9805 179.054 -18.7578 195.9 0 c 0
 212.747 18.7578 243.307 33.9805 264.113 33.9805 c 0
 452.112 33.9805 597.486 -63.2168 772.456 -63.2178 c 0
EndSplineSet
Fore
910.157 442.116 m 0
 910.157 235.776 712.645 58.6699 486.077 -3.71354 c 1
 580.91 -31.0406 671.784 -63.2178 772.456 -63.2178 c 0
 815.539 -63.2178 839.273 -49.3399 847.322 -17.1436 c 0
 852.405 3.18807 894.082 33.9805 925.741 33.9805 c 0
 936.881 33.9805 943.77 29.5289 943.77 21.4137 c 0
 943.77 20.0871 943.586 18.6625 943.206 17.1436 c 0
 921.764 -68.5766 803.967 -131.18 711.417 -131.18 c 0
 523.418 -131.179 378.043 -33.9805 203.073 -33.9805 c 0
 191.242 -33.9805 185.1 -29.0579 185.1 -21.3619 c 0
 185.1 0.775089 232.508 33.9805 264.113 33.9805 c 0
 371.721 33.9805 505.642 36.0236 626.995 106.088 c 0
 712.4 155.398 813.266 253.646 813.266 399.831 c 0
 813.266 533.861 718.34 635.991 574.365 635.991 c 0
 379.877 635.991 244.1 476.277 244.1 342.279 c 0
 244.1 244.393 318.122 170.471 426.55 170.471 c 0
 518.268 170.471 556.152 204.769 586.06 204.769 c 0
 597.067 204.769 604.074 200.444 604.074 192.186 c 0
 604.074 182.524 590.083 159.141 554.416 143.879 c 0
 488.35 115.609 423.861 102.509 365.51 102.509 c 0
 244.321 102.509 146.928 179.115 146.928 298.705 c 0
 146.928 492.097 387.592 703.953 635.404 703.953 c 0
 807.949 703.953 910.157 588.44 910.157 442.116 c 0
EndSplineSet
EndChar
StartChar: R
Encoding: 82 82 19
Width: 1058
Flags: HMW
Back
298.377 314.024 m 0
 324.748 419.505 340.364 524.869 344.929 628.414 c 0
 345.584 643.276 367.837 664.626 394.601 676.069 c 0
 421.364 687.513 442.554 684.737 441.898 669.875 c 0
 437.239 564.178 421.299 456.463 394.261 348.312 c 0
 367.223 240.159 329.23 132.13 280.74 25.7754 c 0
 272.797 8.35156 245.6 -11.4277 220.034 -18.374 c 0
 194.468 -25.3203 180.166 -16.8164 188.11 0.607422 c 0
 235.02 103.494 272.007 208.544 298.377 314.024 c 0
186.156 583.055 m 0
 171.359 574.512 165.629 565.787 162.783 561.777 c 0
 152.65 547.502 148.748 532.64 147.447 527.435 c 0
 143.398 511.239 118.635 490.415 92.1709 480.952 c 0
 65.707 471.489 47.5146 476.953 51.5645 493.148 c 0
 58.1025 519.303 69.8203 538.535 78.2432 550.401 c 0
 97.751 577.884 124.549 601.938 162.579 623.894 c 0
 174.365 630.698 170.232 628.193 172.161 629.228 c 0
 217.437 653.519 295.217 683.125 423.934 683.125 c 0
 444.74 683.125 447.954 667.902 431.106 649.145 c 0
 414.26 630.387 383.7 615.163 362.895 615.163 c 0
 281.078 615.164 219.801 601.16 188.937 584.602 c 0
 188.751 584.502 233.3 610.273 186.156 583.055 c 0
705.907 382.438 m 0
 736.561 400.136 766.852 429.239 779.082 478.163 c 0
 787.729 512.751 784.45 537.112 774.062 555.107 c 0
 738.331 616.995 605.142 615.163 480.911 615.163 c 2
 362.895 615.163 l 2
 342.088 615.163 338.874 630.387 355.721 649.145 c 0
 372.568 667.902 403.127 683.125 423.934 683.125 c 2
 541.951 683.125 l 2
 672.084 683.125 824.276 685.426 868.151 609.43 c 0
 882.122 585.232 885.163 553.241 874.966 512.45 c 0
 857.532 442.718 802.721 383.882 729.485 341.6 c 0
 640.855 290.429 541.973 273.3 466.253 273.3 c 0
 445.446 273.3 442.233 288.523 459.08 307.281 c 0
 475.927 326.038 506.486 341.262 527.293 341.262 c 0
 603.953 341.262 667.927 360.51 705.907 382.438 c 0
818.332 47.1719 m 0
 840.858 47.1719 866.599 51.8721 892.088 66.5879 c 0
 911.034 77.5264 925.427 91.6035 934.734 102.106 c 0
 951.357 120.862 981.881 136.248 1002.87 136.449 c 0
 1023.85 136.65 1027.39 121.592 1010.77 102.835 c 0
 985.466 74.2822 952.837 47.21 915.666 25.749 c 0
 887.88 9.70703 827.237 -20.79 757.292 -20.79 c 0
 623.053 -20.7891 564.492 273.301 466.253 273.3 c 0
 445.446 273.3 442.233 288.523 459.08 307.281 c 0
 475.927 326.038 506.486 341.262 527.293 341.262 c 0
 661.424 341.262 720.092 47.1719 818.332 47.1719 c 0
EndSplineSet
Fore
881 557 m 0
 881 452 783 341 616 294 c 1
 694 211 745 47 818 47 c 0
 865 47 903 67 935 102 c 0
 952 121 982 136 1003 136 c 0
 1015 136 1021 132 1021 124 c 0
 1021 96 892 -21 757 -21 c 0
 623 -21 564 273 466 273 c 0
 454 273 448 278 448 286 c 0
 448 308 496 341 527 341 c 0
 604 341 668 361 706 382 c 0
 775 423 784 490 784 515 c 0
 784 600 688 615 502 615 c 2
 438 615 l 1
 421 393 356 191 281 26 c 0
 271 4 231 -21 204 -21 c 0
 193 -21 186 -16 186 -8 c 0
 186 6 326 264 344 615 c 1
 191 611 158 571 147 527 c 0
 142 507 101 476 69 476 c 0
 58 476 51 481 51 489 c 0
 51 514 85 579 163 624 c 2
 172 629 l 2
 217 654 295 683 424 683 c 2
 564 683 l 2
 576.267 683 589.523 683.091 603.419 683.091 c 0
 719.795 683.091 881 676.707 881 557 c 0
EndSplineSet
EndChar
StartChar: S
Encoding: 83 83 20
Width: 758
Flags: HMW
Back
654.882 532.9 m 2
 660.028 553.488 658.212 574.645 649.428 589.86 c 0
 643.977 599.301 635.893 606.444 626.407 610.452 c 0
 586.07 627.493 541.281 635.991 495.575 635.991 c 0
 436.91 635.991 394.763 621.645 374.308 609.834 c 0
 364.202 603.999 357.812 598.191 351.859 590.79 c 0
 345.18 582.484 338.073 570.104 334.077 554.119 c 0
 327.662 528.461 331.134 506.136 342.285 486.82 c 0
 355.776 463.452 389.17 430.283 474.691 407.476 c 0
 526.113 393.762 637.866 362.369 678.082 292.711 c 0
 693.573 265.88 699.144 233.062 689.101 192.888 c 0
 674.526 134.593 633.86 95.9775 608.928 75.7461 c 0
 598.678 67.4287 589.084 60.6895 581.416 55.6309 c 0
 577.635 53.1367 570.973 48.8252 561.985 43.6367 c 0
 472.073 -8.27441 370.077 -20.7891 299.475 -20.7891 c 0
 181.98 -20.7891 112.751 30.0684 80.4482 62.3916 c 0
 74.3926 68.4512 69.2412 75.1768 65.04 82.4541 c 0
 49.5439 109.294 44.8457 147.796 67.8574 190.585 c 0
 75.0928 204.039 82.0791 212.946 86.9053 218.578 c 0
 95.4092 228.5 108.446 241.376 129.382 253.463 c 1
 139.853 257.878 155.81 268.792 181.525 272.221 c 0
 184.217 272.58 191.924 273.093 194.328 273.093 c 0
 215.135 273.093 218.349 257.869 201.503 239.112 c 0
 184.656 220.354 154.097 205.131 133.29 205.131 c 0
 132.77 205.131 158.288 208.461 133.82 205.198 c 0
 133.819 205.198 153 212.646 152.96 212.624 c 0
 152.702 212.48 164.501 221.096 164.5 221.095 c 0
 163.938 220.438 161.633 217.569 158.414 211.583 c 0
 149.201 194.452 142.712 165.214 159.13 136.777 c 0
 162.436 131.051 166.498 125.758 171.189 121.063 c 0
 242.694 49.5137 335.587 47.1729 360.515 47.1729 c 0
 447.148 47.1719 508.493 67.2041 538.408 84.4756 c 0
 546.699 89.2627 543.916 87.8154 545.247 88.6924 c 0
 548.474 90.8223 551.45 92.9932 554.354 95.3496 c 0
 568.127 106.526 585.142 126.301 593.217 158.601 c 0
 601 189.735 596.967 215.915 583.992 238.389 c 0
 547.539 301.529 438.805 330.439 397.819 341.37 c 0
 300.497 367.325 263.567 405.871 248.194 432.498 c 0
 234.574 456.089 229.446 484.845 238.193 519.832 c 0
 243.754 542.075 254.354 563.622 271.596 585.06 c 0
 289.521 607.348 315.625 630.405 350.729 650.673 c 0
 423.57 692.728 501.249 703.953 556.614 703.953 c 0
 612.561 703.953 663.516 693.786 708.452 674.802 c 0
 724.728 667.926 736.009 657.189 743.518 644.183 c 0
 755.621 623.219 758.051 596.333 750.765 567.188 c 2
 749.888 563.678 l 2
 745.84 547.482 721.076 526.658 694.612 517.194 c 0
 668.148 507.73 649.956 513.193 654.004 529.389 c 2
 654.882 532.9 l 2
EndSplineSet
Fore
653.44 525.12 m 0
 653.44 531.431 657.639 537.742 657.639 556.675 c 0
 657.639 586.26 642.858 603.501 626.407 610.452 c 0
 586.07 627.493 541.281 635.991 495.575 635.991 c 0
 460.567 635.991 383.271 629.843 351.859 590.79 c 0
 340.959 577.235 331.089 554.255 331.089 529.463 c 0
 331.089 488.536 359.282 438.255 474.691 407.476 c 0
 593.985 375.661 694.159 326.836 694.159 231.641 c 0
 694.159 117.019 551.523 -20.7891 299.475 -20.7891 c 0
 168.419 -20.7891 85.7017 46.6655 65.04 82.4541 c 0
 56.6773 96.9393 52.4355 113.917 52.4355 131.75 c 0
 52.4355 214.782 136.688 273.093 194.328 273.093 c 0
 206.16 273.093 212.303 268.17 212.303 260.473 c 0
 212.303 240.327 178.545 217.908 157.397 210.106 c 1
 152.57 200.389 149.27 187.816 149.27 174.413 c 0
 149.27 156.497 155.166 137.1 171.189 121.063 c 0
 242.694 49.5137 335.587 47.1729 360.515 47.1729 c 0
 458.731 47.1729 526.263 72.5559 554.354 95.3496 c 0
 581.919 117.717 596.951 153.255 596.951 187.45 c 0
 596.951 279.802 483.33 318.564 397.819 341.37 c 0
 318.75 362.458 233.862 404.455 233.862 486.46 c 0
 233.862 591.495 370.974 703.953 556.614 703.953 c 0
 612.561 703.953 663.516 693.786 708.452 674.802 c 0
 742.056 660.605 754.534 631.254 754.534 599.346 c 0
 754.534 587.593 752.841 575.494 749.888 563.678 c 0
 744.806 543.345 703.127 512.55 671.469 512.55 c 0
 660.329 512.55 653.44 517.004 653.44 525.12 c 0
EndSplineSet
EndChar
StartChar: T
Encoding: 84 84 21
Width: 709
Flags: HMW
Back
372.286 150.965 m 2
 481.972 589.706 l 2
 486.049 606.015 512.87 628.529 541.841 639.962 c 0
 570.812 651.395 591.015 647.437 586.938 631.129 c 2
 477.252 192.388 l 2
 459.721 122.261 433.687 52.165 399.462 -16.5928 c 0
 390.491 -34.6162 360.61 -56.1221 332.764 -64.5977 c 0
 304.917 -73.0732 289.598 -65.3242 298.568 -47.3008 c 0
 330.661 17.1738 355.502 83.8301 372.286 150.965 c 2
930.438 640.343 m 0
 913.15 630.361 896.846 624.333 884.146 620.712 c 0
 851.304 611.346 817.062 610.71 776.193 610.709 c 2
 272.766 610.709 l 2
 258.161 610.709 245.548 608.375 237.913 606.417 c 0
 229.438 604.244 220.926 601.014 214.5 597.304 c 0
 206.213 592.52 199.193 585.844 193.38 578.73 c 0
 184.809 568.244 175.817 552.473 171.605 533.575 c 0
 168.013 517.461 141.533 494.883 112.499 483.179 c 0
 83.4639 471.476 62.8145 475.056 66.4062 491.17 c 0
 72.0547 516.511 84.2383 541.383 104.736 566.461 c 0
 123.962 589.982 152.813 615.765 191.085 637.86 c 0
 220.705 654.962 251.327 667.03 278.841 674.084 c 0
 302.553 680.164 324.541 682.871 345.114 682.871 c 2
 848.542 682.871 l 2
 855.651 682.871 903.715 682.358 920.114 687.035 c 0
 920.117 687.035 916.66 686.463 907.023 680.899 c 1
 908.709 681.872 750.398 555.364 894.229 672.132 c 0
 894.229 672.132 882.8 660.238 882.8 660.239 c 1
 886.877 676.548 913.698 699.062 942.669 710.495 c 0
 971.64 721.928 991.844 717.971 987.767 701.662 c 1
 975.104 677.008 974.795 673.228 954.89 657.067 c 0
 950.589 653.576 935.555 643.296 930.438 640.343 c 0
EndSplineSet
Fore
988.29 705.608 m 0
 988.29 699.328 977.275 675.242 954.89 657.067 c 0
 902.163 614.27 845.733 610.711 776.193 610.709 c 2
 581.833 610.709 l 1
 477.252 192.388 l 2
 459.72 122.261 433.686 52.1653 399.462 -16.5928 c 0
 388.475 -38.6651 342.393 -68.0328 312.873 -68.0328 c 0
 302.215 -68.0328 296.004 -63.9166 296.004 -56.5761 c 0
 296.004 -42.5486 339.067 18.0919 372.286 150.965 c 2
 481.972 589.706 l 2
 483.571 596.1 488.665 603.449 496.015 610.709 c 1
 272.766 610.709 l 2
 206.723 610.709 180.196 572.115 171.605 533.575 c 0
 166.402 510.232 114.605 476.295 82.872 476.295 c 0
 72.3977 476.295 66.0004 480.236 66.0004 487.716 c 0
 66.0004 547.68 191.825 682.871 345.114 682.871 c 2
 855.933 682.871 l 2
 866.333 682.871 884.672 683 899.922 684.158 c 1
 924.757 706.754 957.117 717.03 971.416 717.03 c 0
 981.906 717.03 988.29 713.074 988.29 705.608 c 0
EndSplineSet
EndChar
StartChar: U
Encoding: 85 85 22
Width: 771
Flags: HMW
Back
293.119 31.9893 m 0
 235.602 -1.21777 179.249 -20.79 132.322 -20.7891 c 0
 72.7695 -20.7891 45.0703 10.3115 31.8848 33.1494 c 0
 7.88867 74.7129 5.19629 134.093 20.5967 195.69 c 0
 56.8379 340.655 189.11 558.833 160.955 607.601 c 0
 159.622 609.909 158.425 611.013 157.589 611.729 c 0
 156.218 612.903 153.209 615.163 147.097 615.163 c 0
 126.353 615.163 102.729 610.962 79.332 597.454 c 0
 78.8271 597.162 77.3232 596.271 76.8252 595.97 c 0
 51.2207 580.424 24.0947 576.325 16.2783 586.821 c 0
 8.46094 597.317 22.8975 618.453 48.5029 633.999 c 0
 49.9424 634.872 54.2949 637.45 55.7539 638.293 c 0
 82.4941 653.73 140.866 683.125 208.136 683.125 c 0
 227.832 683.125 239.655 677.92 247.029 671.604 c 0
 249.988 669.07 252.566 666.216 255.045 661.924 c 0
 292.84 596.459 153.733 378.989 116.479 229.978 c 0
 107.472 193.945 100.344 131.869 125.976 87.4727 c 0
 144.934 54.6348 172.646 47.1719 193.361 47.1719 c 0
 216.539 47.1719 240.855 56.2676 269.541 72.8281 c 0
 432.359 166.832 664.692 464.654 706.529 632 c 0
 710.578 648.195 735.342 669.021 761.806 678.483 c 0
 788.27 687.946 806.462 682.482 802.413 666.287 c 0
 757.08 484.957 509.045 156.654 293.119 31.9893 c 0
653.053 198.443 m 0
 641.789 153.388 635.471 108.35 634.24 64.2275 c 0
 634.1 59.1699 635.264 54.5762 637.418 50.8438 c 0
 641.501 43.7725 649.215 40.1191 654.587 40.1748 c 0
 655.888 40.1885 652.689 40.3301 645.971 36.9404 c 1
 662.6 45.3301 l 2
 689.19 58.7451 713.293 58.9941 716.399 45.8848 c 0
 719.507 32.7754 700.447 11.2471 673.856 -2.16797 c 2
 657.229 -10.5576 l 2
 631.96 -23.3066 609.77 -27.6221 594.431 -27.7822 c 0
 587.291 -27.8564 557.308 -27.6924 543.328 -3.47949 c 0
 539.192 3.68457 536.974 12.2646 537.253 22.2773 c 0
 538.546 68.6797 545.186 116.222 557.169 164.156 c 0
 596.524 321.574 646.736 478.877 707.484 634.973 c 0
 714.119 652.021 740.554 672.206 766.49 680.028 c 0
 792.427 687.852 808.093 680.363 801.458 663.315 c 0
 741.552 509.382 691.953 354.043 653.053 198.443 c 0
EndSplineSet
Fore
261.471 632.326 m 0
 261.471 527.593 108.633 303.581 108.633 166.846 c 0
 108.633 104.378 132.882 47.1719 193.361 47.1719 c 0
 310.988 47.1719 571.731 331.452 672.577 541.942 c 2
 707.371 634.683 l 2
 715.819 657.188 756.826 683.125 784.961 683.125 c 0
 794.797 683.125 802.98 679.254 802.98 670.542 c 0
 802.98 658.982 784.465 608.747 767.337 572.407 c 0
 712.441 420.575 634.643 171.928 634.643 71.8082 c 0
 634.643 58.8353 635.12 42.7018 652.638 40.3039 c 1
 662.6 45.3301 l 2
 676.096 52.1392 688.952 55.5563 698.746 55.5563 c 0
 708.129 55.5563 716.731 52.1538 716.731 42.9376 c 0
 716.731 29.7264 698.537 10.2857 673.856 -2.16797 c 2
 657.229 -10.5576 l 2
 633.552 -22.5036 611.845 -27.8556 593.597 -27.8556 c 0
 559.308 -27.8556 537.229 -8.95815 537.229 20.5972 c 0
 537.229 100.643 565.901 204.517 596.418 308.877 c 1
 455.364 134.642 271.44 -20.7891 132.322 -20.7891 c 0
 50.6202 -20.7891 10.9855 40.5501 10.9855 122.031 c 0
 10.9855 263.608 164.77 502.496 164.77 590.296 c 0
 164.77 611.957 154.166 615.163 147.097 615.163 c 0
 86.5497 615.163 70.1103 581.018 32.0596 581.018 c 0
 17.6841 581.018 14.0903 588.545 14.0903 593.563 c 0
 14.0903 622.855 112.191 683.125 208.136 683.125 c 0
 246.728 683.125 261.471 663.943 261.471 632.326 c 0
EndSplineSet
EndChar
StartChar: V
Encoding: 86 86 23
Width: 782
Flags: HMW
Back
205.973 536.879 m 0
 167.371 603.741 119.654 619.808 82.0078 619.808 c 0
 62.1631 619.808 57.0293 633.965 70.5469 651.408 c 0
 84.0664 668.853 111.143 683.01 130.988 683.01 c 0
 210.822 683.01 258.869 638.718 289.741 585.243 c 0
 377.13 433.875 361.931 140.022 353.145 38.957 c 1
 326.08 20.3701 304.597 6.94629 291.95 0 c 1
 263.206 -26.4619 l 1
 263.22 -24.8936 263.467 -23.208 263.967 -21.4131 c 1
 260.88 -32.498 311.812 353.555 205.973 536.879 c 0
733.089 474.049 m 0
 735.237 479.949 736.913 485.413 738.235 490.705 c 0
 740.314 499.019 739.16 504.26 738.791 507.125 c 0
 735.79 530.42 717.681 559.395 681.065 572.723 c 0
 668.289 577.372 653.838 579.925 638.225 579.925 c 0
 624.591 579.925 620.176 602.997 628.368 631.426 c 0
 636.562 659.854 654.276 682.925 667.909 682.925 c 0
 686.094 682.925 702.94 679.977 718.095 674.461 c 0
 753.862 661.441 788.41 630.099 795.544 574.71 c 0
 798.172 554.314 797.209 528.384 789.834 498.884 c 0
 786.384 485.085 782.115 471.347 777.249 457.976 c 0
 689.028 215.591 352.391 -12.2256 285.16 -49.1504 c 0
 269.702 -57.6406 260.198 -42.5117 263.945 -15.3809 c 0
 267.692 11.75 283.28 40.6592 298.738 49.1494 c 0
 402.267 106.01 677.559 321.478 733.089 474.049 c 0
EndSplineSet
Fore
263 -26 m 0
 263 -6 274 54 274 175 c 0
 274 370 235 620 82 620 c 0
 70 620 63 625 63 634 c 0
 63 653 101 683 131 683 c 0
 326 683 361 408 361 207 c 0
 361 161 359 120 357 86 c 1
 484 173 706 360 738 491 c 0
 739 494 739 497 739 500 c 0
 739 532 709 580 638 580 c 0
 629 580 624 590 624 605 c 0
 624 640 650 683 668 683 c 0
 741 683 797 635 797 553 c 0
 797 536 795 518 790 499 c 0
 720 220 295 -52 277 -52 c 0
 268 -52 263 -41 263 -26 c 0
EndSplineSet
EndChar
StartChar: W
Encoding: 87 87 24
Width: 1221
Flags: HMW
Back
189.838 549.655 m 0
 156.763 606.945 114.447 619.808 82.0078 619.808 c 0
 62.1631 619.808 57.0293 633.965 70.5469 651.408 c 0
 84.0664 668.853 111.143 683.01 130.988 683.01 c 0
 214.382 683.01 254.008 631.968 273.606 598.02 c 0
 340.727 481.758 333.467 262.486 319.806 124.701 c 1
 384.124 197.444 444.367 272.799 500.16 350.206 c 0
 563.39 437.93 620.706 528.011 671.773 619.653 c 1
 672.755 619.653 l 1
 668.89 628.206 l 2
 663.497 640.049 678.111 660.056 701.51 672.863 c 0
 724.908 685.671 748.275 686.453 753.667 674.61 c 0
 801.581 569.375 839.247 458.23 866.281 342.275 c 0
 887.918 249.473 902.688 153.831 910.505 55.959 c 1
 885.909 29.6543 866.308 10.1074 855.423 0 c 2
 826.656 -26.4834 l 1
 820.193 85.5312 804.594 194.799 779.982 300.359 c 0
 758.826 391.104 731.066 478.875 696.895 563.111 c 1
 642.61 466.253 582.461 372.097 516.958 281.219 c 0
 435.179 167.759 345.343 59.792 248.427 -41.79 c 0
 232.575 -58.4043 218.64 -53.166 217.32 -30.0986 c 0
 217.195 -27.9004 217.188 -25.6191 217.293 -23.2754 c 0
 217.284 -22.9346 217.301 -22.6025 217.344 -22.2822 c 0
 217.655 -16.8662 218.547 -11.1426 219.924 -5.36816 c 0
 229.508 66.7363 279.143 394.97 189.838 549.655 c 0
1167.92 465.894 m 0
 1171.21 474.921 1173.74 483.16 1175.63 490.705 c 0
 1178.15 500.8 1177.62 505.521 1177.55 508.683 c 0
 1177.11 530.347 1166.32 562.872 1132.23 575.282 c 0
 1124.01 578.274 1114.72 579.925 1104.43 579.925 c 0
 1090.8 579.925 1086.38 602.996 1094.58 631.425 c 0
 1102.77 659.853 1120.48 682.925 1134.12 682.925 c 0
 1146.93 682.925 1158.67 680.875 1169.26 677.021 c 0
 1206.45 663.481 1233.91 625.684 1235.16 564.4 c 0
 1235.55 545.084 1233.19 522.75 1227.22 498.884 c 0
 1223.1 482.366 1217.94 465.93 1212.08 449.82 c 0
 1131.91 229.564 882.876 -18.6514 855.571 -44.0049 c 0
 839.665 -58.7734 826.689 -51.0449 826.607 -26.7549 c 0
 826.525 -2.46387 839.368 29.2363 855.273 44.0049 c 0
 934.037 117.139 1117.68 327.868 1167.92 465.894 c 0
EndSplineSet
Fore
131 683 m 0
 250 683 329 579 329 299 c 0
 329 236 325 175 320 125 c 1
 452 275 573 442 672 620 c 1
 666 632 668 631 668 634 c 0
 668 653 706 683 736 683 c 0
 745 683 751 680 754 675 c 0
 850 463 890 261 907 96 c 1
 1025 221 1178 427 1178 507 c 0
 1178 535 1159 580 1104 580 c 0
 1095 580 1090 590 1090 605 c 0
 1090 640 1116 683 1134 683 c 0
 1194 683 1235 639 1235 562 c 0
 1235 337 894 -9 856 -44 c 0
 850 -49 845 -52 841 -52 c 0
 832 -52 827 -43 827 -27 c 0
 814 192 766 392 697 563 c 1
 551 302 384 100 248 -42 c 0
 242 -48 236 -52 231 -52 c 0
 222 -52 217 -41 217 -23 c 2
 217 -23 243 117 243 267 c 0
 243 438 207 620 82 620 c 0
 70 620 63 625 63 634 c 0
 63 653 101 683 131 683 c 0
EndSplineSet
EndChar
StartChar: X
Encoding: 88 88 25
Width: 881
Flags: HMW
Back
753.963 25.2715 m 0
 737.512 15.7734 721.892 10.2529 709.644 7.05566 c 0
 693.391 2.8125 676.074 0.0390625 635.174 0.0390625 c 0
 587.576 0.0390625 563.427 25.4814 549.923 48.8711 c 0
 535.706 73.4961 528.316 103.948 523.409 133.519 c 2
 462.161 502.598 l 2
 457.475 530.842 450.289 559.056 438.214 579.97 c 0
 422.552 607.1 402.776 615.164 386.015 615.164 c 0
 373.73 615.163 351.898 615.084 342.162 612.542 c 0
 342.142 612.537 345.664 613.486 351.841 617.053 c 1
 351.836 617.05 368.666 636.01 365.764 624.4 c 0
 361.715 608.205 336.951 587.381 310.487 577.917 c 0
 284.023 568.454 265.832 573.918 269.881 590.113 c 0
 274.299 607.788 288.035 634.666 328.264 657.892 c 0
 344.714 667.39 360.335 672.911 372.582 676.108 c 0
 388.835 680.352 406.152 683.125 447.054 683.125 c 0
 494.651 683.126 518.801 657.683 532.304 634.293 c 0
 546.521 609.668 553.911 579.215 558.818 549.646 c 2
 620.066 180.566 l 2
 624.753 152.322 631.938 124.108 644.014 103.194 c 0
 659.676 76.0645 679.451 68 696.213 68 c 0
 708.497 68 730.328 68.0801 740.064 70.6211 c 0
 740.085 70.627 736.562 69.6768 730.386 66.1104 c 1
 730.391 66.1143 713.56 47.1543 716.462 58.7637 c 0
 720.511 74.959 745.275 95.7832 771.739 105.246 c 0
 798.203 114.709 816.395 109.245 812.346 93.0498 c 0
 807.927 75.376 794.19 48.4971 753.963 25.2715 c 0
90.5195 30.0605 m 0
 81.9941 44.8271 79.415 63.5684 84.8545 85.3271 c 0
 86.166 90.5752 92.7773 115.205 135.419 152.146 c 0
 176.626 187.843 233.677 221.036 259.558 235.979 c 0
 398.965 316.466 612.115 414.039 740.262 488.024 c 0
 786.143 514.514 813.861 533.837 828.264 546.313 c 0
 831.992 549.544 841.194 557.69 842.659 563.55 c 0
 845.799 576.107 844.308 589.218 838.787 598.78 c 0
 832.326 609.971 822.25 614.355 814.902 615.056 c 0
 814.135 615.129 816.598 615.164 812.688 615.164 c 0
 791.881 615.164 788.668 630.388 805.516 649.146 c 0
 822.362 667.902 852.922 683.126 873.729 683.125 c 0
 877.638 683.125 881.196 682.865 882.96 682.697 c 0
 897.504 681.312 920.182 675.093 932.877 653.103 c 0
 941.402 638.337 943.982 619.595 938.542 597.837 c 0
 933.271 576.75 912.449 552.218 887.979 531.019 c 0
 846.771 495.321 789.721 462.128 763.84 447.186 c 0
 624.432 366.698 411.281 269.125 283.135 195.14 c 0
 237.255 168.65 209.536 149.326 195.133 136.85 c 0
 191.404 133.62 182.202 125.473 180.737 119.614 c 0
 177.599 107.056 179.089 93.9463 184.609 84.3838 c 0
 188.659 77.3701 194.37 68.666 210.709 68.001 c 0
 230.762 67.1836 234.729 52.7773 217.883 34.0205 c 0
 201.036 15.2627 169.703 -0.799805 149.67 0.0390625 c 0
 132.545 0.755859 107.191 1.18262 90.5195 30.0605 c 0
EndSplineSet
Fore
151.807 -0.00531295 m 0
 88.3372 -0.00531295 81.313 47.1317 81.313 63.3194 c 0
 81.313 107.45 126.363 144.301 135.419 152.146 c 0
 202.73 210.457 345.835 284.36 486.571 355.505 c 1
 462.161 502.598 l 2
 451.431 567.259 429.216 615.164 386.015 615.164 c 0
 379.416 615.164 370.063 615.14 361.309 614.725 c 1
 346.997 592.65 309.64 573.274 287.346 573.274 c 0
 276.206 573.274 269.317 577.728 269.317 585.843 c 0
 269.317 603.896 298.235 656.697 372.582 676.108 c 0
 388.835 680.351 406.152 683.125 447.054 683.125 c 0
 514.111 683.125 544.544 635.661 558.818 549.646 c 2
 582.948 404.237 l 1
 690.915 459.145 785.882 509.601 828.264 546.313 c 0
 840.568 556.977 845.279 568.295 845.279 578.608 c 0
 845.279 598.816 827.189 615.164 812.688 615.164 c 0
 800.856 615.164 794.714 620.087 794.714 627.783 c 0
 794.714 649.92 842.123 683.125 873.729 683.125 c 0
 913.419 683.125 941.392 658.119 941.392 619.862 c 0
 941.392 566.8 899.582 511.237 591.193 354.555 c 1
 620.066 180.566 l 2
 630.796 115.905 653.011 68 696.213 68 c 0
 702.811 68 712.163 68.0231 720.916 68.4383 c 1
 735.228 90.5134 772.586 109.889 794.881 109.889 c 0
 806.021 109.889 812.91 105.435 812.91 97.32 c 0
 812.91 79.2671 783.991 26.4644 709.644 7.05566 c 0
 693.391 2.81272 676.074 0.0390625 635.174 0.0390625 c 0
 568.115 0.0390625 537.683 47.5043 523.409 133.519 c 2
 494.771 306.092 l 1
 366.64 242.009 247.366 182.094 195.133 136.85 c 0
 183.31 126.609 178.429 114.68 178.429 103.655 c 0
 178.429 84.8872 192.575 68.7392 210.709 68 c 0
 222.747 67.5093 227.771 62.6576 227.771 55.7507 c 0
 227.771 36.149 187.301 -0.00531295 151.807 -0.00531295 c 0
EndSplineSet
EndChar
StartChar: Y
Encoding: 89 89 26
Width: 823
Flags: HMW
Back
315.931 519.831 m 0
 270.025 599.344 215.434 619.808 170.94 619.808 c 0
 164.631 619.808 161.341 618.375 160.207 617.721 c 0
 158.312 616.626 156.251 614.658 154.703 612.994 c 0
 138.631 595.715 111.114 583.586 93.2695 585.935 c 0
 75.4248 588.283 73.9824 604.217 90.0488 621.502 c 0
 100.768 633.032 116.326 646.634 136.718 658.407 c 0
 165.94 675.279 194.267 683.01 219.921 683.01 c 0
 273.672 683.01 344.002 664.67 399.699 568.195 c 0
 483.984 422.203 492.198 170.67 491.086 60.04 c 1
 461.144 34.5264 431.511 11.4443 403.36 -8.69043 c 1
 405.448 61.333 410.868 355.39 315.931 519.831 c 0
188.956 -44.4893 m 0
 204.514 -50.1523 221.909 -53.1982 240.523 -53.1982 c 0
 318.842 -53.1982 675.515 203.466 769.421 461.466 c 0
 774.336 474.97 778.444 488.278 781.745 501.482 c 0
 784.4 512.102 783.53 513.358 783.526 516.018 c 0
 783.495 539.109 769.364 572.948 727.58 588.157 c 0
 715.588 592.521 702.015 594.927 687.292 594.927 c 0
 673.731 594.927 667.857 614.639 674.18 638.927 c 0
 680.503 663.215 696.641 682.927 710.201 682.927 c 0
 727.9 682.927 744.294 680.058 759.072 674.679 c 0
 797.598 660.656 837.643 623.502 837.737 553.364 c 0
 837.758 537.968 835.719 520.815 831.293 503.111 c 0
 826.431 483.662 820.448 464.367 813.547 445.405 c 0
 699.052 130.839 311.656 -141.198 217.614 -141.198 c 0
 196.018 -141.198 175.808 -137.688 157.464 -131.011 c 0
 129.282 -120.753 83.4385 -93.5371 65.5342 -30.749 c 0
 60.5801 -13.377 68.0176 14.498 82.1357 31.4717 c 0
 96.2539 48.4453 111.732 48.1211 116.687 30.749 c 0
 123.572 6.60254 142.506 -27.582 188.956 -44.4893 c 0
EndSplineSet
Fore
63.9997 -18.6093 m 0
 63.9997 14.1319 87.1364 43.993 102.561 43.993 c 0
 108.945 43.993 114.172 39.5673 116.687 30.749 c 0
 129.51 -14.2082 172.87 -53.1982 240.523 -53.1982 c 0
 268.221 -53.1982 330.742 -21.1734 404.132 31.6289 c 1
 404.177 36.9501 404.2 42.2838 404.2 47.6277 c 0
 404.2 320.463 344.808 619.808 170.94 619.808 c 0
 161.198 619.808 157.969 616.505 154.703 612.994 c 0
 139.969 597.156 115.621 585.644 97.9205 585.644 c 0
 85.3126 585.644 78.8824 591.045 78.8824 599.47 c 0
 78.8824 621.467 148.221 683.01 219.921 683.01 c 0
 427.143 683.01 488.635 386.155 491.117 100.144 c 1
 730.102 304.801 783.48 481.96 783.48 515.856 c 0
 783.48 553.013 750.481 594.927 687.292 594.927 c 0
 677.433 594.927 671.637 605.346 671.637 620.367 c 0
 671.637 653.083 694.775 682.927 710.201 682.927 c 0
 784.529 682.927 837.739 631.697 837.739 552.801 c 0
 837.739 537.252 835.672 520.629 831.293 503.111 c 0
 746.805 165.15 317.066 -141.198 217.614 -141.198 c 0
 100.852 -141.198 63.9997 -45.0472 63.9997 -18.6093 c 0
EndSplineSet
EndChar
StartChar: Z
Encoding: 90 90 27
Width: 882
Flags: HMW
Back
847.449 624.998 m 0
 801.854 598.674 758.513 588.526 726.81 588.526 c 0
 630.666 588.526 541.974 610.71 453.226 610.71 c 0
 418.74 610.71 389.628 604.361 372.085 597.981 c 0
 365.123 595.449 360.599 593.186 357.943 591.652 c 0
 354.717 589.789 347.337 585.11 339.81 571.841 c 0
 336.535 566.068 333.45 558.813 331.345 550.388 c 0
 327.268 534.08 300.446 511.565 271.476 500.133 c 0
 242.505 488.699 222.301 492.657 226.378 508.966 c 0
 229.386 520.995 234.067 532.803 240.829 544.723 c 0
 265.739 588.637 310.067 618.087 334.527 632.209 c 0
 354.488 643.732 374.44 652.652 393.166 659.462 c 0
 406.979 664.485 460.212 682.871 525.575 682.871 c 0
 621.718 682.871 710.411 660.688 799.159 660.688 c 0
 808.802 660.688 819.371 662.862 824.034 665.555 c 0
 824.206 665.653 824.217 665.661 824.303 665.713 c 0
 852.519 682.671 881.693 687.956 889.427 677.511 c 0
 897.16 667.065 880.536 644.825 852.32 627.867 c 0
 851.352 627.285 848.429 625.563 847.449 624.998 c 0
515.808 377.776 m 0
 614.11 461.547 708.382 550.821 797.845 645.017 c 0
 816.738 664.909 850.201 681.849 872.538 682.827 c 0
 894.876 683.807 897.671 668.456 878.778 648.563 c 0
 785.051 549.879 685.591 455.611 580.943 366.434 c 0
 440.719 246.938 295.781 132.798 146.676 24.498 c 0
 120.782 5.69043 88.7148 -4.25293 75.0967 2.30273 c 0
 61.4785 8.85742 71.4404 29.4414 97.334 48.248 c 0
 240.581 152.293 380.242 262.25 515.808 377.776 c 0
706.945 35.665 m 0
 683.703 22.2461 639.065 0.292969 590.442 0.292969 c 0
 453.817 0.292969 323.667 22.4756 192.297 22.4756 c 0
 158.729 22.4756 132.446 14.1914 116.65 7.65039 c 0
 87.5439 -4.40332 66.3203 -1.31836 69.2754 14.5361 c 0
 72.2314 30.3916 98.2529 53.042 127.359 65.0957 c 0
 184.481 88.752 232.069 94.6377 264.646 94.6377 c 0
 401.271 94.6377 531.421 72.4541 662.792 72.4551 c 0
 670.709 72.4551 679.246 73.748 683.529 76.2217 c 0
 684.656 76.8721 689.384 79.8428 696.629 87.3652 c 0
 711.226 102.52 728.648 129.119 736.883 162.055 c 0
 740.96 178.363 767.781 200.878 796.752 212.311 c 0
 825.723 223.743 845.926 219.785 841.849 203.478 c 0
 829.011 152.125 798.848 113.005 776.699 90.0107 c 0
 758.966 71.5996 735.72 52.2773 706.945 35.665 c 0
636.24 336.224 m 0
 636.223 336.242 628.749 343.604 532.233 343.604 c 2
 371.037 343.604 l 2
 352.872 343.604 345.361 356.372 354.271 372.104 c 0
 363.182 387.836 385.156 400.604 403.321 400.604 c 2
 564.518 400.604 l 2
 690.66 400.604 693.868 390.352 705.719 376.337 c 0
 709.119 372.314 709.827 365.605 707.789 357.452 c 0
 703.995 342.279 684.786 326.591 664.913 322.434 c 0
 645.039 318.277 631.988 327.218 635.782 342.39 c 0
 635.785 342.401 636.24 336.223 636.24 336.224 c 0
EndSplineSet
Fore
709 366 m 0
 709 339 675 321 656 321 c 0
 643 321 635 327 635 337 c 1
 631 338 616 343 554 343 c 1
 466 269 363 185 241 94 c 1
 248 94 257 95 265 95 c 0
 401 95 531 72 663 72 c 0
 680 72 685 76 697 87 c 0
 711 103 729 129 737 162 c 0
 743 186 794 219 825 219 c 0
 836 219 842 215 842 207 c 2
 842 203 l 1
 814 92 691 0 590 0 c 0
 454 0 324 22 192 22 c 0
 133 22 112 0 86 0 c 0
 78 0 69 3 69 12 c 0
 69 19 76 33 97 48 c 0
 248 157 372 256 476 344 c 1
 371 344 l 2
 358 344 351 350 351 360 c 0
 351 376 376 401 403 401 c 2
 542 401 l 1
 623 472 690 535 744 589 c 1
 727 589 l 2
 631 589 542 611 453 611 c 0
 363 611 340 585 331 550 c 0
 325 527 274 494 243 494 c 0
 232 494 226 498 226 505 c 2
 226 509 l 1
 249 599 380 683 526 683 c 0
 622 683 710 661 799 661 c 0
 830 661 841 682 874 683 c 0
 881 683 891 681 891 671 c 0
 891 662 881 651 879 649 c 0
 818 585 735 502 619 400 c 1
 682 397 709 388 709 366 c 0
EndSplineSet
EndChar
